<svg width="21" height="10" viewBox="0 0 21 10" fill="none" xmlns="http://www.w3.org/2000/svg">
<path d="M3.17969 9.85938V9C2.18066 8.91406 1.4305 8.78158 0.929199 8.60254V7.07715H1.65967L1.66504 7.1792C1.67578 7.32601 1.68115 7.43522 1.68115 7.50684C1.68115 8.05469 2.18066 8.368 3.17969 8.44678V5.51953L2.89502 5.31543C2.18962 4.80339 1.72233 4.39697 1.49316 4.09619C1.264 3.79183 1.14941 3.4266 1.14941 3.00049C1.14941 2.44189 1.34814 1.98177 1.74561 1.62012C2.14665 1.25846 2.68018 1.06868 3.34619 1.05078V0.186035H3.8457V1.05078C4.65495 1.12956 5.27083 1.24951 5.69336 1.41064V2.90381H4.96289L4.95752 2.80176C4.92887 2.30762 4.84652 1.98535 4.71045 1.83496C4.57796 1.68099 4.28971 1.57894 3.8457 1.52881V4.28955L4.44727 4.68701C5.02376 5.06657 5.41585 5.40495 5.62354 5.70215C5.8348 5.99935 5.94043 6.36458 5.94043 6.79785C5.94043 7.4209 5.73454 7.93294 5.32275 8.33398C4.91455 8.73145 4.3667 8.95345 3.6792 9V9.85938H3.17969ZM3.6792 8.41455C4.28792 8.24268 4.59229 7.82194 4.59229 7.15234C4.59229 6.87305 4.53678 6.65283 4.42578 6.4917C4.31478 6.33057 4.06592 6.10677 3.6792 5.82031V8.41455ZM3.31396 3.97803V1.56641C2.76611 1.79915 2.49219 2.19482 2.49219 2.75342C2.49219 2.9432 2.56022 3.14014 2.69629 3.34424C2.83594 3.54834 3.04183 3.7596 3.31396 3.97803ZM7.73975 8.90869V7.41016H8.47021L8.47559 7.50684C8.48991 7.71452 8.49707 7.8291 8.49707 7.85059C8.49707 8.11556 8.60628 8.32503 8.82471 8.479C9.04671 8.62939 9.34928 8.70459 9.73242 8.70459C10.1943 8.70459 10.5703 8.54346 10.8604 8.22119C11.1504 7.89535 11.2954 7.47282 11.2954 6.95361C11.2954 6.33415 11.0985 5.8597 10.7046 5.53027C10.3107 5.19727 9.74674 5.03076 9.0127 5.03076H8.47021V4.53662H8.92676C9.6429 4.53662 10.1782 4.40055 10.5327 4.12842C10.8908 3.85628 11.0698 3.44987 11.0698 2.90918C11.0698 2.44368 10.9445 2.06771 10.6938 1.78125C10.4432 1.49121 10.1156 1.34619 9.71094 1.34619C9.33496 1.34619 9.02702 1.43929 8.78711 1.62549C8.67611 1.71501 8.60986 1.84928 8.58838 2.02832L8.56152 2.5708L8.55615 2.67285H7.79346V1.20117C8.50244 0.968424 9.23649 0.852051 9.99561 0.852051C10.8442 0.852051 11.5013 1.01497 11.9668 1.34082C12.4323 1.66309 12.665 2.12321 12.665 2.72119C12.665 3.19385 12.5111 3.60384 12.2031 3.95117C11.8952 4.2985 11.4548 4.55452 10.8818 4.71924C11.5443 4.85889 12.0509 5.11491 12.4019 5.4873C12.7563 5.8597 12.9336 6.32699 12.9336 6.88916C12.9336 7.60173 12.6615 8.16569 12.1172 8.58105C11.5765 8.99284 10.8389 9.19873 9.9043 9.19873C9.47461 9.19873 9.07894 9.17367 8.71729 9.12354C8.35921 9.07699 8.03337 9.00537 7.73975 8.90869ZM17.7837 6.84619H14.0078V5.94922L17.9395 0.94873H19.1104V5.71826H20.0396V6.84619H19.1104V7.44238C19.1104 7.9222 19.1462 8.21224 19.2178 8.3125C19.2894 8.40918 19.5078 8.47005 19.873 8.49512L19.9697 8.50049V9H16.9243V8.50049L17.021 8.49512C17.3862 8.47005 17.6047 8.40918 17.6763 8.3125C17.7479 8.21224 17.7837 7.9222 17.7837 7.44238V6.84619ZM14.8135 5.71826H17.7837V1.96924L14.8135 5.71826Z" fill="#453A3C"/>
</svg>
