<svg width="109" height="14" viewBox="0 0 109 14" fill="none" xmlns="http://www.w3.org/2000/svg">
<path d="M2.92188 9.4375L2.25781 10.9766C1.9974 11.5807 1.86719 11.9844 1.86719 12.1875C1.86719 12.4062 2.20312 12.5156 2.875 12.5156H3V13H0V12.5156L0.164062 12.5078C0.611979 12.487 0.877604 12.4323 0.960938 12.3438C1.04948 12.25 1.26823 11.7943 1.61719 10.9766L5.6875 1.28906H6.23438L10.2891 11.0312C10.6068 11.7292 10.8307 12.1458 10.9609 12.2812C11.0911 12.4115 11.3464 12.487 11.7266 12.5078L11.9062 12.5156V13H7.61719V12.5156H7.75781C8.48698 12.5156 8.85156 12.4115 8.85156 12.2031C8.85156 11.8958 8.74219 11.487 8.52344 10.9766L7.875 9.4375H2.92188ZM3.17969 8.80469H7.59375L5.39844 3.53906L3.17969 8.80469ZM18.8906 13V11.4062C18.5156 12 18.0781 12.4479 17.5781 12.75C17.0833 13.0469 16.5286 13.1953 15.9141 13.1953C14.9557 13.1953 14.1927 12.8177 13.625 12.0625C13.0573 11.3021 12.7734 10.2839 12.7734 9.00781C12.7734 7.59115 13.099 6.45833 13.75 5.60938C14.401 4.75521 15.2656 4.32812 16.3438 4.32812C16.8385 4.32812 17.2969 4.42448 17.7188 4.61719C18.1458 4.8099 18.5365 5.09896 18.8906 5.48438V2.6875C18.8906 1.97396 18.8333 1.55208 18.7188 1.42188C18.6094 1.28646 18.2344 1.19792 17.5938 1.15625L17.4453 1.14844V0.664062H20.4375V10.9766C20.4375 11.6849 20.4922 12.1068 20.6016 12.2422C20.7161 12.3776 21.0938 12.4661 21.7344 12.5078L21.8828 12.5156V13H18.8906ZM18.8906 6.08594C18.4896 5.78385 18.0938 5.5599 17.7031 5.41406C17.3125 5.26302 16.9271 5.1875 16.5469 5.1875C15.8333 5.1875 15.2969 5.47135 14.9375 6.03906C14.5833 6.60156 14.4062 7.45052 14.4062 8.58594C14.4062 9.78906 14.5781 10.6927 14.9219 11.2969C15.2708 11.8958 15.7917 12.1953 16.4844 12.1953C16.9531 12.1953 17.388 12.0859 17.7891 11.8672C18.1901 11.6432 18.5573 11.3099 18.8906 10.8672V6.08594ZM29.1562 13V11.4062C28.7812 12 28.3438 12.4479 27.8438 12.75C27.349 13.0469 26.7943 13.1953 26.1797 13.1953C25.2214 13.1953 24.4583 12.8177 23.8906 12.0625C23.3229 11.3021 23.0391 10.2839 23.0391 9.00781C23.0391 7.59115 23.3646 6.45833 24.0156 5.60938C24.6667 4.75521 25.5312 4.32812 26.6094 4.32812C27.1042 4.32812 27.5625 4.42448 27.9844 4.61719C28.4115 4.8099 28.8021 5.09896 29.1562 5.48438V2.6875C29.1562 1.97396 29.099 1.55208 28.9844 1.42188C28.875 1.28646 28.5 1.19792 27.8594 1.15625L27.7109 1.14844V0.664062H30.7031V10.9766C30.7031 11.6849 30.7578 12.1068 30.8672 12.2422C30.9818 12.3776 31.3594 12.4661 32 12.5078L32.1484 12.5156V13H29.1562ZM29.1562 6.08594C28.7552 5.78385 28.3594 5.5599 27.9688 5.41406C27.5781 5.26302 27.1927 5.1875 26.8125 5.1875C26.099 5.1875 25.5625 5.47135 25.2031 6.03906C24.849 6.60156 24.6719 7.45052 24.6719 8.58594C24.6719 9.78906 24.8438 10.6927 25.1875 11.2969C25.5365 11.8958 26.0573 12.1953 26.75 12.1953C27.2188 12.1953 27.6536 12.0859 28.0547 11.8672C28.4557 11.6432 28.8229 11.3099 29.1562 10.8672V6.08594ZM40.5859 6.10938C40.9766 5.51562 41.4271 5.07031 41.9375 4.77344C42.4479 4.47656 43.0182 4.32812 43.6484 4.32812C44.3776 4.32812 44.9505 4.56771 45.3672 5.04688C45.7786 5.52604 45.9844 6.1849 45.9844 7.02344V10.9766C46.0208 11.7526 46.0807 12.1901 46.1641 12.2891C46.2474 12.388 46.6224 12.4609 47.2891 12.5078L47.4297 12.5156V13H43V12.5156L43.1406 12.5078C43.8073 12.4609 44.1823 12.388 44.2656 12.2891C44.349 12.1901 44.4089 11.7526 44.4453 10.9766V7.26562C44.4453 6.53646 44.349 6.03125 44.1562 5.75C43.9688 5.46354 43.6302 5.32031 43.1406 5.32031C42.7969 5.32031 42.4115 5.42969 41.9844 5.64844C41.5573 5.86198 41.0911 6.1875 40.5859 6.625V10.9766C40.5859 11.6849 40.6432 12.1068 40.7578 12.2422C40.8724 12.3776 41.25 12.4661 41.8906 12.5078L42.0391 12.5156V13H37.6016V12.5156L37.75 12.5078C38.3802 12.4661 38.7526 12.3776 38.8672 12.2422C38.987 12.1016 39.0469 11.6797 39.0469 10.9766V6.53906C39.0469 5.83594 38.987 5.41667 38.8672 5.28125C38.7526 5.14583 38.3802 5.05469 37.75 5.00781L37.6016 5V4.51562H40.5859V6.10938ZM55.0938 12.6172C54.1146 13.0026 53.2214 13.1953 52.4141 13.1953C51.1693 13.1953 50.1562 12.776 49.375 11.9375C48.599 11.099 48.2109 10.0104 48.2109 8.67188C48.2109 7.40104 48.5599 6.35938 49.2578 5.54688C49.9557 4.73438 50.8516 4.32812 51.9453 4.32812C52.9557 4.32812 53.7318 4.66927 54.2734 5.35156C54.8203 6.03385 55.0938 7.00781 55.0938 8.27344V8.42188H49.9141C49.9141 9.73958 50.1432 10.7344 50.6016 11.4062C51.0651 12.0781 51.75 12.4141 52.6562 12.4141C53.6094 12.4141 54.4219 12.2188 55.0938 11.8281V12.6172ZM49.9453 7.9375H53.4609L53.4688 7.59375C53.4688 6.60938 53.3411 5.89844 53.0859 5.46094C52.8307 5.02344 52.4141 4.80469 51.8359 4.80469C51.2578 4.80469 50.7969 5.08854 50.4531 5.65625C50.1146 6.22396 49.9453 6.98438 49.9453 7.9375ZM59.2031 13.0938L57.1172 6.53906C56.9036 5.88281 56.737 5.46875 56.6172 5.29688C56.5026 5.11979 56.3229 5.02344 56.0781 5.00781L55.9297 5V4.51562H59.7344V5H59.5703C58.7734 5 58.375 5.11979 58.375 5.35938C58.375 5.58854 58.4635 5.98177 58.6406 6.53906L59.9609 10.7812L62.4219 4.5625H62.8906L65.3984 10.9375L66.9297 6.53906C67.1432 5.91927 67.25 5.52865 67.25 5.36719C67.25 5.1224 66.8464 5 66.0391 5H65.8672V4.51562H68.6406V5L68.4688 5.00781C68.1094 5.02865 67.849 5.30469 67.6875 5.83594C67.6406 5.98698 67.5625 6.22135 67.4531 6.53906L65.1484 13.0938H64.7188L62.1484 6.64062L59.6797 13.0938H59.2031ZM76.8047 4.51562V10.9766C76.8047 11.6849 76.862 12.1068 76.9766 12.2422C77.0911 12.3776 77.4688 12.4661 78.1094 12.5078L78.2578 12.5156V13H73.8203V12.5156L73.9688 12.5078C74.599 12.4661 74.9714 12.3776 75.0859 12.2422C75.2057 12.1016 75.2656 11.6797 75.2656 10.9766V6.53906C75.2656 5.83594 75.2057 5.41667 75.0859 5.28125C74.9714 5.14583 74.599 5.05469 73.9688 5.00781L73.8203 5V4.51562H76.8047ZM75.2656 2.97656V1.4375H76.8047V2.97656H75.2656ZM84.0859 12.9531C83.6953 13.1146 83.3229 13.1953 82.9688 13.1953C82.0677 13.1953 81.4089 12.9688 80.9922 12.5156C80.5807 12.0625 80.375 11.3411 80.375 10.3516V5.14844H79.125V4.51562H80.375V2.97656L81.9219 2.59375V4.51562H84.2812V5.14844H81.9219V10.5547C81.9219 11.2839 82.0182 11.8021 82.2109 12.1094C82.4036 12.4167 82.7318 12.5703 83.1953 12.5703C83.4401 12.5703 83.737 12.4896 84.0859 12.3281V12.9531ZM92.375 12.6172C91.3958 13.0026 90.5026 13.1953 89.6953 13.1953C88.4505 13.1953 87.4375 12.776 86.6562 11.9375C85.8802 11.099 85.4922 10.0104 85.4922 8.67188C85.4922 7.40104 85.8411 6.35938 86.5391 5.54688C87.237 4.73438 88.1328 4.32812 89.2266 4.32812C90.237 4.32812 91.013 4.66927 91.5547 5.35156C92.1016 6.03385 92.375 7.00781 92.375 8.27344V8.42188H87.1953C87.1953 9.73958 87.4245 10.7344 87.8828 11.4062C88.3464 12.0781 89.0312 12.4141 89.9375 12.4141C90.8906 12.4141 91.7031 12.2188 92.375 11.8281V12.6172ZM87.2266 7.9375H90.7422L90.75 7.59375C90.75 6.60938 90.6224 5.89844 90.3672 5.46094C90.112 5.02344 89.6953 4.80469 89.1172 4.80469C88.5391 4.80469 88.0781 5.08854 87.7344 5.65625C87.3958 6.22396 87.2266 6.98438 87.2266 7.9375ZM96.4766 6.10938C96.9245 5.51562 97.3906 5.07031 97.875 4.77344C98.3646 4.47656 98.875 4.32812 99.4062 4.32812C100.026 4.32812 100.518 4.47656 100.883 4.77344C101.247 5.07031 101.482 5.51562 101.586 6.10938C102.081 5.51562 102.581 5.07031 103.086 4.77344C103.591 4.47656 104.099 4.32812 104.609 4.32812C106.13 4.32812 106.891 5.16146 106.891 6.82812V10.9766C106.891 11.6849 106.945 12.1068 107.055 12.2422C107.169 12.3724 107.547 12.4609 108.188 12.5078L108.336 12.5156V13H103.898V12.5156L104.047 12.5078C104.688 12.4609 105.062 12.3724 105.172 12.2422C105.286 12.1068 105.344 11.6849 105.344 10.9766V7.10938C105.344 6.4375 105.255 5.97396 105.078 5.71875C104.906 5.45833 104.596 5.32812 104.148 5.32812C103.773 5.32812 103.38 5.4375 102.969 5.65625C102.562 5.875 102.135 6.20312 101.688 6.64062V10.9766C101.688 11.6797 101.745 12.1016 101.859 12.2422C101.974 12.3776 102.349 12.4661 102.984 12.5078L103.133 12.5156V13H98.6953V12.5156L98.8438 12.5078C99.4844 12.4661 99.8594 12.3776 99.9688 12.2422C100.083 12.1068 100.141 11.6849 100.141 10.9766V7.10938C100.141 6.44792 100.055 5.98698 99.8828 5.72656C99.7109 5.46094 99.4089 5.32812 98.9766 5.32812C98.5703 5.32812 98.1589 5.4375 97.7422 5.65625C97.3255 5.875 96.9036 6.20312 96.4766 6.64062V10.9766C96.4766 11.6849 96.5339 12.1068 96.6484 12.2422C96.763 12.3776 97.1406 12.4661 97.7812 12.5078L97.9297 12.5156V13H93.4922V12.5156L93.6406 12.5078C94.2708 12.4661 94.6432 12.3776 94.7578 12.2422C94.8776 12.1016 94.9375 11.6797 94.9375 10.9766V6.53906C94.9375 5.83594 94.8776 5.41667 94.7578 5.28125C94.6432 5.14583 94.2708 5.05469 93.6406 5.00781L93.4922 5V4.51562H96.4766V6.10938Z" fill="#AB3333"/>
</svg>
