<svg width="328" height="43" viewBox="0 0 328 43" fill="none" xmlns="http://www.w3.org/2000/svg">
<g filter="url(#filter0_d_889_2921)">
<rect x="4" width="100" height="35" rx="10" fill="#F5F5F5"/>
<rect x="4.5" y="0.5" width="99" height="34" rx="9.5" stroke="#E3E2E0"/>
</g>
<path d="M20.21 22V21.5459L20.3027 21.541C20.6315 21.5182 20.8285 21.4629 20.8936 21.375C20.9587 21.2839 20.9912 21.0202 20.9912 20.584V16.1846C20.9912 15.7484 20.9587 15.4863 20.8936 15.3984C20.8317 15.3105 20.6348 15.2536 20.3027 15.2275L20.21 15.2227V14.7734H22.5781L23.6279 14.7588L24.0137 14.7539C25.1497 14.7539 26.0238 15.055 26.6357 15.6572C27.2445 16.2594 27.5488 17.1188 27.5488 18.2354C27.5488 19.3812 27.238 20.2959 26.6162 20.9795C25.9977 21.6598 25.1676 22 24.126 22H20.21ZM22.4902 15.252V20.584C22.4902 20.9811 22.5505 21.2318 22.6709 21.3359C22.7946 21.4368 23.0924 21.4873 23.5645 21.4873C24.362 21.4873 24.9593 21.2171 25.3564 20.6768C25.7536 20.1331 25.9521 19.3193 25.9521 18.2354C25.9521 17.1546 25.7308 16.388 25.2881 15.9355C24.8486 15.4798 24.1016 15.252 23.0469 15.252H22.4902ZM30.3174 16.6387V20.584C30.3174 21.0202 30.3499 21.2839 30.415 21.375C30.4834 21.4629 30.682 21.5182 31.0107 21.541L31.1035 21.5459V22H28.0908V21.5459L28.1836 21.541C28.5124 21.5182 28.7093 21.4629 28.7744 21.375C28.8395 21.2839 28.8721 21.0202 28.8721 20.584V18.0547C28.8721 17.6185 28.8395 17.3564 28.7744 17.2686C28.7093 17.1774 28.5124 17.1204 28.1836 17.0977L28.0908 17.0928V16.6387H30.3174ZM28.8721 15.7354V14.29H30.3174V15.7354H28.8721ZM31.7334 21.7559V20.374H32.3975L32.4023 20.4619C32.4219 20.8656 32.4837 21.1243 32.5879 21.2383C32.8483 21.5247 33.234 21.668 33.7451 21.668C33.9925 21.668 34.2008 21.5882 34.3701 21.4287C34.5426 21.2692 34.6289 21.0723 34.6289 20.8379C34.6289 20.4766 34.3245 20.1755 33.7158 19.9346L33.2715 19.7588C32.2461 19.3519 31.7334 18.8034 31.7334 18.1133C31.7334 17.625 31.9303 17.2376 32.3242 16.9512C32.7214 16.6615 33.2568 16.5166 33.9307 16.5166C34.4645 16.5166 35.0212 16.6012 35.6006 16.7705V18.0547H34.9365L34.9316 17.9619L34.9219 17.7275C34.9219 17.223 34.6273 16.9707 34.0381 16.9707C33.7809 16.9707 33.5628 17.0537 33.3838 17.2197C33.2048 17.3857 33.1152 17.5892 33.1152 17.8301C33.1152 18.0319 33.1803 18.1914 33.3105 18.3086C33.444 18.4225 33.7158 18.5576 34.126 18.7139L34.5654 18.8848C35.5648 19.2689 36.0645 19.7832 36.0645 20.4277C36.0645 20.9193 35.8529 21.3245 35.4297 21.6436C35.0065 21.9626 34.4694 22.1221 33.8184 22.1221C33.0111 22.1221 32.3161 22 31.7334 21.7559ZM41.3477 21.873C40.791 22.0391 40.2572 22.1221 39.7461 22.1221C38.8118 22.1221 38.0762 21.8682 37.5391 21.3604C37.0052 20.8493 36.7383 20.1478 36.7383 19.2559C36.7383 18.403 36.9922 17.734 37.5 17.249C38.0078 16.7607 38.7077 16.5166 39.5996 16.5166C40.1628 16.5166 40.7389 16.598 41.3281 16.7607V18.1426H40.6348L40.6299 18.0547C40.6038 17.6478 40.555 17.4004 40.4834 17.3125C40.3011 17.0846 40.0195 16.9707 39.6387 16.9707C39.1829 16.9707 38.8411 17.1562 38.6133 17.5273C38.3854 17.8984 38.2715 18.4551 38.2715 19.1973C38.2715 19.9557 38.4229 20.5254 38.7256 20.9062C39.0316 21.2871 39.4873 21.4775 40.0928 21.4775C40.4671 21.4775 40.8854 21.3864 41.3477 21.2041V21.873ZM44.9365 22.1221C44.0706 22.1221 43.3887 21.873 42.8906 21.375C42.3958 20.8737 42.1484 20.1885 42.1484 19.3193C42.1484 18.4502 42.3958 17.7666 42.8906 17.2686C43.3887 16.7673 44.0706 16.5166 44.9365 16.5166C45.7992 16.5166 46.4779 16.7673 46.9727 17.2686C47.4707 17.7666 47.7197 18.4502 47.7197 19.3193C47.7197 20.1885 47.4707 20.8737 46.9727 21.375C46.4779 21.873 45.7992 22.1221 44.9365 22.1221ZM44.9365 21.6094C45.3337 21.6094 45.6299 21.4189 45.8252 21.0381C46.0238 20.654 46.123 20.0811 46.123 19.3193C46.123 18.5544 46.0238 17.9814 45.8252 17.6006C45.6299 17.2197 45.3337 17.0293 44.9365 17.0293C44.5394 17.0293 44.2415 17.2197 44.043 17.6006C43.8444 17.9814 43.7451 18.5544 43.7451 19.3193C43.7451 20.0811 43.8444 20.654 44.043 21.0381C44.2415 21.4189 44.5394 21.6094 44.9365 21.6094ZM52.1826 22V20.9893C51.9645 21.3669 51.7025 21.6501 51.3965 21.8389C51.0905 22.0277 50.7406 22.1221 50.3467 22.1221C49.8682 22.1221 49.4922 21.9723 49.2188 21.6729C48.9453 21.3734 48.8086 20.96 48.8086 20.4326V18.0547C48.8086 17.6185 48.776 17.3564 48.7109 17.2686C48.6458 17.1774 48.4489 17.1204 48.1201 17.0977L48.0273 17.0928V16.6387H50.2539V20.2666C50.2539 20.641 50.3027 20.8997 50.4004 21.043C50.498 21.1829 50.6722 21.2529 50.9229 21.2529C51.154 21.2529 51.3737 21.1862 51.582 21.0527C51.7936 20.9193 51.9938 20.7207 52.1826 20.457V18.0547C52.1826 17.6185 52.1501 17.3564 52.085 17.2686C52.0199 17.1774 51.8213 17.1204 51.4893 17.0977L51.4014 17.0928V16.6387H53.6279V20.584C53.6279 21.0202 53.6605 21.2839 53.7256 21.375C53.7939 21.4629 53.9925 21.5182 54.3213 21.541L54.4141 21.5459V22H52.1826ZM56.9482 17.6494C57.1696 17.2718 57.4333 16.9886 57.7393 16.7998C58.0452 16.611 58.3936 16.5166 58.7842 16.5166C59.266 16.5166 59.6436 16.6647 59.917 16.9609C60.1872 17.2604 60.3223 17.6755 60.3223 18.2061V20.584C60.3223 21.0202 60.3548 21.2839 60.4199 21.375C60.4883 21.4629 60.6868 21.5182 61.0156 21.541L61.1084 21.5459V22H58.0957V21.5459L58.1836 21.541C58.5156 21.5182 58.7142 21.4629 58.7793 21.375C58.8444 21.2839 58.877 21.0202 58.877 20.584V18.3721C58.877 17.9912 58.8314 17.734 58.7402 17.6006C58.6523 17.4639 58.4814 17.3955 58.2275 17.3955C58.0094 17.3955 57.793 17.4622 57.5781 17.5957C57.3665 17.7259 57.1566 17.9245 56.9482 18.1914V20.584C56.9482 21.0202 56.9808 21.2839 57.0459 21.375C57.1143 21.4629 57.3128 21.5182 57.6416 21.541L57.7344 21.5459V22H54.7217V21.5459L54.8145 21.541C55.1432 21.5182 55.3402 21.4629 55.4053 21.375C55.4704 21.2839 55.5029 21.0202 55.5029 20.584V18.0547C55.5029 17.6185 55.4704 17.3564 55.4053 17.2686C55.3402 17.1774 55.1432 17.1204 54.8145 17.0977L54.7217 17.0928V16.6387H56.9482V17.6494ZM64.7461 21.9561C64.4434 22.0667 64.1471 22.1221 63.8574 22.1221C63.2552 22.1221 62.8027 21.974 62.5 21.6777C62.2005 21.3783 62.0508 20.9307 62.0508 20.335V17.1221H61.3867V16.6387H62.0508V15.7354L63.4961 15.4814V16.6387H64.6826V17.1221H63.4961V20.3691C63.4961 20.8477 63.5433 21.1634 63.6377 21.3164C63.7321 21.4694 63.9274 21.5459 64.2236 21.5459C64.3864 21.5459 64.5605 21.5085 64.7461 21.4336V21.9561ZM72.0215 14.71V20.584C72.0215 21.0462 72.0622 21.3115 72.1436 21.3799C72.2249 21.445 72.5765 21.4987 73.1982 21.541L73.2861 21.5459V22H69.3115V21.5459L69.4043 21.541C70.1009 21.4857 70.4606 21.4092 70.4834 21.3115C70.5452 21.0576 70.5762 20.8151 70.5762 20.584V16.3994C70.5762 16.0479 70.5518 15.8216 70.5029 15.7207C70.4541 15.6165 70.3451 15.5645 70.1758 15.5645C70.1139 15.5645 69.8568 15.5938 69.4043 15.6523L69.3115 15.6621V15.1787L72.0215 14.71ZM77.4756 22.1807C76.639 22.1807 75.9619 21.8324 75.4443 21.1357C74.93 20.4359 74.6729 19.5228 74.6729 18.3965C74.6729 17.2604 74.93 16.3424 75.4443 15.6426C75.9619 14.9427 76.639 14.5928 77.4756 14.5928C78.3089 14.5928 78.9827 14.9427 79.4971 15.6426C80.0146 16.3424 80.2734 17.2604 80.2734 18.3965C80.2734 19.5228 80.0146 20.4359 79.4971 21.1357C78.9827 21.8324 78.3089 22.1807 77.4756 22.1807ZM77.4756 21.7266C77.8988 21.7266 78.2145 21.4482 78.4229 20.8916C78.6344 20.335 78.7402 19.5016 78.7402 18.3916C78.7402 17.2751 78.6328 16.4385 78.418 15.8818C78.2031 15.3219 77.8792 15.042 77.4463 15.042C77.0361 15.042 76.7269 15.3219 76.5186 15.8818C76.3135 16.4385 76.2109 17.2751 76.2109 18.3916C76.2109 19.5016 76.3167 20.335 76.5283 20.8916C76.7399 21.4482 77.0557 21.7266 77.4756 21.7266ZM80.8154 22.1807L87.0117 14.5928H87.9688L81.7236 22.1807H80.8154ZM82.4951 18.4014C81.9189 18.4014 81.486 18.25 81.1963 17.9473C80.9098 17.6445 80.7666 17.1921 80.7666 16.5898C80.7666 15.9844 80.9098 15.5303 81.1963 15.2275C81.486 14.9248 81.9189 14.7734 82.4951 14.7734C83.0713 14.7734 83.5026 14.9248 83.7891 15.2275C84.0788 15.5303 84.2236 15.9844 84.2236 16.5898C84.2236 17.1921 84.0788 17.6445 83.7891 17.9473C83.5026 18.25 83.0713 18.4014 82.4951 18.4014ZM82.4951 17.9375C82.7067 17.9375 82.8646 17.8252 82.9688 17.6006C83.0762 17.376 83.1299 17.0391 83.1299 16.5898C83.1299 16.1374 83.0762 15.7988 82.9688 15.5742C82.8646 15.3496 82.7067 15.2373 82.4951 15.2373C82.2835 15.2373 82.124 15.3496 82.0166 15.5742C81.9092 15.7988 81.8555 16.1374 81.8555 16.5898C81.8555 17.0391 81.9092 17.376 82.0166 17.6006C82.124 17.8252 82.2835 17.9375 82.4951 17.9375ZM86.2939 22C85.7178 22 85.2848 21.8486 84.9951 21.5459C84.7087 21.2432 84.5654 20.7907 84.5654 20.1885C84.5654 19.583 84.7087 19.1305 84.9951 18.8311C85.2848 18.5283 85.7178 18.377 86.2939 18.377C86.8701 18.377 87.3014 18.5283 87.5879 18.8311C87.8776 19.1305 88.0225 19.583 88.0225 20.1885C88.0225 20.7907 87.8776 21.2432 87.5879 21.5459C87.3014 21.8486 86.8701 22 86.2939 22ZM86.2939 21.5361C86.5088 21.5361 86.6683 21.4238 86.7725 21.1992C86.8799 20.9746 86.9336 20.6393 86.9336 20.1934C86.9336 19.7409 86.8799 19.4023 86.7725 19.1777C86.6683 18.9499 86.5088 18.8359 86.2939 18.8359C86.0824 18.8359 85.9229 18.9499 85.8154 19.1777C85.708 19.4023 85.6543 19.7409 85.6543 20.1934C85.6543 20.6393 85.708 20.9746 85.8154 21.1992C85.9229 21.4238 86.0824 21.5361 86.2939 21.5361Z" fill="#453A3C"/>
<g filter="url(#filter1_d_889_2921)">
<rect x="114" width="100" height="35" rx="10" fill="#F5F5F5"/>
<rect x="114.5" y="0.5" width="99" height="34" rx="9.5" stroke="#E3E2E0"/>
</g>
<path d="M130.21 22V21.5459L130.303 21.541C130.632 21.5182 130.828 21.4629 130.894 21.375C130.959 21.2839 130.991 21.0202 130.991 20.584V16.1846C130.991 15.7484 130.959 15.4863 130.894 15.3984C130.832 15.3105 130.635 15.2536 130.303 15.2275L130.21 15.2227V14.7734H132.578L133.628 14.7588L134.014 14.7539C135.15 14.7539 136.024 15.055 136.636 15.6572C137.244 16.2594 137.549 17.1188 137.549 18.2354C137.549 19.3812 137.238 20.2959 136.616 20.9795C135.998 21.6598 135.168 22 134.126 22H130.21ZM132.49 15.252V20.584C132.49 20.9811 132.55 21.2318 132.671 21.3359C132.795 21.4368 133.092 21.4873 133.564 21.4873C134.362 21.4873 134.959 21.2171 135.356 20.6768C135.754 20.1331 135.952 19.3193 135.952 18.2354C135.952 17.1546 135.731 16.388 135.288 15.9355C134.849 15.4798 134.102 15.252 133.047 15.252H132.49ZM140.317 16.6387V20.584C140.317 21.0202 140.35 21.2839 140.415 21.375C140.483 21.4629 140.682 21.5182 141.011 21.541L141.104 21.5459V22H138.091V21.5459L138.184 21.541C138.512 21.5182 138.709 21.4629 138.774 21.375C138.84 21.2839 138.872 21.0202 138.872 20.584V18.0547C138.872 17.6185 138.84 17.3564 138.774 17.2686C138.709 17.1774 138.512 17.1204 138.184 17.0977L138.091 17.0928V16.6387H140.317ZM138.872 15.7354V14.29H140.317V15.7354H138.872ZM141.733 21.7559V20.374H142.397L142.402 20.4619C142.422 20.8656 142.484 21.1243 142.588 21.2383C142.848 21.5247 143.234 21.668 143.745 21.668C143.993 21.668 144.201 21.5882 144.37 21.4287C144.543 21.2692 144.629 21.0723 144.629 20.8379C144.629 20.4766 144.325 20.1755 143.716 19.9346L143.271 19.7588C142.246 19.3519 141.733 18.8034 141.733 18.1133C141.733 17.625 141.93 17.2376 142.324 16.9512C142.721 16.6615 143.257 16.5166 143.931 16.5166C144.465 16.5166 145.021 16.6012 145.601 16.7705V18.0547H144.937L144.932 17.9619L144.922 17.7275C144.922 17.223 144.627 16.9707 144.038 16.9707C143.781 16.9707 143.563 17.0537 143.384 17.2197C143.205 17.3857 143.115 17.5892 143.115 17.8301C143.115 18.0319 143.18 18.1914 143.311 18.3086C143.444 18.4225 143.716 18.5576 144.126 18.7139L144.565 18.8848C145.565 19.2689 146.064 19.7832 146.064 20.4277C146.064 20.9193 145.853 21.3245 145.43 21.6436C145.007 21.9626 144.469 22.1221 143.818 22.1221C143.011 22.1221 142.316 22 141.733 21.7559ZM151.348 21.873C150.791 22.0391 150.257 22.1221 149.746 22.1221C148.812 22.1221 148.076 21.8682 147.539 21.3604C147.005 20.8493 146.738 20.1478 146.738 19.2559C146.738 18.403 146.992 17.734 147.5 17.249C148.008 16.7607 148.708 16.5166 149.6 16.5166C150.163 16.5166 150.739 16.598 151.328 16.7607V18.1426H150.635L150.63 18.0547C150.604 17.6478 150.555 17.4004 150.483 17.3125C150.301 17.0846 150.02 16.9707 149.639 16.9707C149.183 16.9707 148.841 17.1562 148.613 17.5273C148.385 17.8984 148.271 18.4551 148.271 19.1973C148.271 19.9557 148.423 20.5254 148.726 20.9062C149.032 21.2871 149.487 21.4775 150.093 21.4775C150.467 21.4775 150.885 21.3864 151.348 21.2041V21.873ZM154.937 22.1221C154.071 22.1221 153.389 21.873 152.891 21.375C152.396 20.8737 152.148 20.1885 152.148 19.3193C152.148 18.4502 152.396 17.7666 152.891 17.2686C153.389 16.7673 154.071 16.5166 154.937 16.5166C155.799 16.5166 156.478 16.7673 156.973 17.2686C157.471 17.7666 157.72 18.4502 157.72 19.3193C157.72 20.1885 157.471 20.8737 156.973 21.375C156.478 21.873 155.799 22.1221 154.937 22.1221ZM154.937 21.6094C155.334 21.6094 155.63 21.4189 155.825 21.0381C156.024 20.654 156.123 20.0811 156.123 19.3193C156.123 18.5544 156.024 17.9814 155.825 17.6006C155.63 17.2197 155.334 17.0293 154.937 17.0293C154.539 17.0293 154.242 17.2197 154.043 17.6006C153.844 17.9814 153.745 18.5544 153.745 19.3193C153.745 20.0811 153.844 20.654 154.043 21.0381C154.242 21.4189 154.539 21.6094 154.937 21.6094ZM162.183 22V20.9893C161.965 21.3669 161.702 21.6501 161.396 21.8389C161.09 22.0277 160.741 22.1221 160.347 22.1221C159.868 22.1221 159.492 21.9723 159.219 21.6729C158.945 21.3734 158.809 20.96 158.809 20.4326V18.0547C158.809 17.6185 158.776 17.3564 158.711 17.2686C158.646 17.1774 158.449 17.1204 158.12 17.0977L158.027 17.0928V16.6387H160.254V20.2666C160.254 20.641 160.303 20.8997 160.4 21.043C160.498 21.1829 160.672 21.2529 160.923 21.2529C161.154 21.2529 161.374 21.1862 161.582 21.0527C161.794 20.9193 161.994 20.7207 162.183 20.457V18.0547C162.183 17.6185 162.15 17.3564 162.085 17.2686C162.02 17.1774 161.821 17.1204 161.489 17.0977L161.401 17.0928V16.6387H163.628V20.584C163.628 21.0202 163.66 21.2839 163.726 21.375C163.794 21.4629 163.993 21.5182 164.321 21.541L164.414 21.5459V22H162.183ZM166.948 17.6494C167.17 17.2718 167.433 16.9886 167.739 16.7998C168.045 16.611 168.394 16.5166 168.784 16.5166C169.266 16.5166 169.644 16.6647 169.917 16.9609C170.187 17.2604 170.322 17.6755 170.322 18.2061V20.584C170.322 21.0202 170.355 21.2839 170.42 21.375C170.488 21.4629 170.687 21.5182 171.016 21.541L171.108 21.5459V22H168.096V21.5459L168.184 21.541C168.516 21.5182 168.714 21.4629 168.779 21.375C168.844 21.2839 168.877 21.0202 168.877 20.584V18.3721C168.877 17.9912 168.831 17.734 168.74 17.6006C168.652 17.4639 168.481 17.3955 168.228 17.3955C168.009 17.3955 167.793 17.4622 167.578 17.5957C167.367 17.7259 167.157 17.9245 166.948 18.1914V20.584C166.948 21.0202 166.981 21.2839 167.046 21.375C167.114 21.4629 167.313 21.5182 167.642 21.541L167.734 21.5459V22H164.722V21.5459L164.814 21.541C165.143 21.5182 165.34 21.4629 165.405 21.375C165.47 21.2839 165.503 21.0202 165.503 20.584V18.0547C165.503 17.6185 165.47 17.3564 165.405 17.2686C165.34 17.1774 165.143 17.1204 164.814 17.0977L164.722 17.0928V16.6387H166.948V17.6494ZM174.746 21.9561C174.443 22.0667 174.147 22.1221 173.857 22.1221C173.255 22.1221 172.803 21.974 172.5 21.6777C172.201 21.3783 172.051 20.9307 172.051 20.335V17.1221H171.387V16.6387H172.051V15.7354L173.496 15.4814V16.6387H174.683V17.1221H173.496V20.3691C173.496 20.8477 173.543 21.1634 173.638 21.3164C173.732 21.4694 173.927 21.5459 174.224 21.5459C174.386 21.5459 174.561 21.5085 174.746 21.4336V21.9561ZM178.672 22V21.5166C178.926 20.7972 179.478 20.0615 180.327 19.3096L180.625 19.0459C181.54 18.2386 181.997 17.4281 181.997 16.6143C181.997 16.1423 181.872 15.7679 181.621 15.4912C181.37 15.2113 181.034 15.0713 180.61 15.0713C180.249 15.0713 179.954 15.1738 179.727 15.3789C179.622 15.4733 179.562 15.6051 179.546 15.7744L179.531 16.248L179.526 16.3359H178.862V14.9883C179.591 14.7214 180.29 14.5879 180.957 14.5879C181.738 14.5879 182.36 14.7653 182.822 15.1201C183.288 15.4749 183.521 15.9502 183.521 16.5459C183.521 17.3109 183.013 18.0205 181.997 18.6748C181.649 18.8962 181.419 19.0524 181.309 19.1436L180.903 19.4658C180.386 19.8792 180.107 20.3219 180.068 20.7939H183.501V22H178.672ZM187.476 22.1807C186.639 22.1807 185.962 21.8324 185.444 21.1357C184.93 20.4359 184.673 19.5228 184.673 18.3965C184.673 17.2604 184.93 16.3424 185.444 15.6426C185.962 14.9427 186.639 14.5928 187.476 14.5928C188.309 14.5928 188.983 14.9427 189.497 15.6426C190.015 16.3424 190.273 17.2604 190.273 18.3965C190.273 19.5228 190.015 20.4359 189.497 21.1357C188.983 21.8324 188.309 22.1807 187.476 22.1807ZM187.476 21.7266C187.899 21.7266 188.215 21.4482 188.423 20.8916C188.634 20.335 188.74 19.5016 188.74 18.3916C188.74 17.2751 188.633 16.4385 188.418 15.8818C188.203 15.3219 187.879 15.042 187.446 15.042C187.036 15.042 186.727 15.3219 186.519 15.8818C186.313 16.4385 186.211 17.2751 186.211 18.3916C186.211 19.5016 186.317 20.335 186.528 20.8916C186.74 21.4482 187.056 21.7266 187.476 21.7266ZM190.815 22.1807L197.012 14.5928H197.969L191.724 22.1807H190.815ZM192.495 18.4014C191.919 18.4014 191.486 18.25 191.196 17.9473C190.91 17.6445 190.767 17.1921 190.767 16.5898C190.767 15.9844 190.91 15.5303 191.196 15.2275C191.486 14.9248 191.919 14.7734 192.495 14.7734C193.071 14.7734 193.503 14.9248 193.789 15.2275C194.079 15.5303 194.224 15.9844 194.224 16.5898C194.224 17.1921 194.079 17.6445 193.789 17.9473C193.503 18.25 193.071 18.4014 192.495 18.4014ZM192.495 17.9375C192.707 17.9375 192.865 17.8252 192.969 17.6006C193.076 17.376 193.13 17.0391 193.13 16.5898C193.13 16.1374 193.076 15.7988 192.969 15.5742C192.865 15.3496 192.707 15.2373 192.495 15.2373C192.284 15.2373 192.124 15.3496 192.017 15.5742C191.909 15.7988 191.855 16.1374 191.855 16.5898C191.855 17.0391 191.909 17.376 192.017 17.6006C192.124 17.8252 192.284 17.9375 192.495 17.9375ZM196.294 22C195.718 22 195.285 21.8486 194.995 21.5459C194.709 21.2432 194.565 20.7907 194.565 20.1885C194.565 19.583 194.709 19.1305 194.995 18.8311C195.285 18.5283 195.718 18.377 196.294 18.377C196.87 18.377 197.301 18.5283 197.588 18.8311C197.878 19.1305 198.022 19.583 198.022 20.1885C198.022 20.7907 197.878 21.2432 197.588 21.5459C197.301 21.8486 196.87 22 196.294 22ZM196.294 21.5361C196.509 21.5361 196.668 21.4238 196.772 21.1992C196.88 20.9746 196.934 20.6393 196.934 20.1934C196.934 19.7409 196.88 19.4023 196.772 19.1777C196.668 18.9499 196.509 18.8359 196.294 18.8359C196.082 18.8359 195.923 18.9499 195.815 19.1777C195.708 19.4023 195.654 19.7409 195.654 20.1934C195.654 20.6393 195.708 20.9746 195.815 21.1992C195.923 21.4238 196.082 21.5361 196.294 21.5361Z" fill="#AB3333"/>
<g filter="url(#filter2_d_889_2921)">
<rect x="224" width="100" height="35" rx="10" fill="#F5F5F5"/>
<rect x="224.5" y="0.5" width="99" height="34" rx="9.5" stroke="#E3E2E0"/>
</g>
<path d="M240.21 22V21.5459L240.303 21.541C240.632 21.5182 240.828 21.4629 240.894 21.375C240.959 21.2839 240.991 21.0202 240.991 20.584V16.1846C240.991 15.7484 240.959 15.4863 240.894 15.3984C240.832 15.3105 240.635 15.2536 240.303 15.2275L240.21 15.2227V14.7734H242.578L243.628 14.7588L244.014 14.7539C245.15 14.7539 246.024 15.055 246.636 15.6572C247.244 16.2594 247.549 17.1188 247.549 18.2354C247.549 19.3812 247.238 20.2959 246.616 20.9795C245.998 21.6598 245.168 22 244.126 22H240.21ZM242.49 15.252V20.584C242.49 20.9811 242.55 21.2318 242.671 21.3359C242.795 21.4368 243.092 21.4873 243.564 21.4873C244.362 21.4873 244.959 21.2171 245.356 20.6768C245.754 20.1331 245.952 19.3193 245.952 18.2354C245.952 17.1546 245.731 16.388 245.288 15.9355C244.849 15.4798 244.102 15.252 243.047 15.252H242.49ZM250.317 16.6387V20.584C250.317 21.0202 250.35 21.2839 250.415 21.375C250.483 21.4629 250.682 21.5182 251.011 21.541L251.104 21.5459V22H248.091V21.5459L248.184 21.541C248.512 21.5182 248.709 21.4629 248.774 21.375C248.84 21.2839 248.872 21.0202 248.872 20.584V18.0547C248.872 17.6185 248.84 17.3564 248.774 17.2686C248.709 17.1774 248.512 17.1204 248.184 17.0977L248.091 17.0928V16.6387H250.317ZM248.872 15.7354V14.29H250.317V15.7354H248.872ZM251.733 21.7559V20.374H252.397L252.402 20.4619C252.422 20.8656 252.484 21.1243 252.588 21.2383C252.848 21.5247 253.234 21.668 253.745 21.668C253.993 21.668 254.201 21.5882 254.37 21.4287C254.543 21.2692 254.629 21.0723 254.629 20.8379C254.629 20.4766 254.325 20.1755 253.716 19.9346L253.271 19.7588C252.246 19.3519 251.733 18.8034 251.733 18.1133C251.733 17.625 251.93 17.2376 252.324 16.9512C252.721 16.6615 253.257 16.5166 253.931 16.5166C254.465 16.5166 255.021 16.6012 255.601 16.7705V18.0547H254.937L254.932 17.9619L254.922 17.7275C254.922 17.223 254.627 16.9707 254.038 16.9707C253.781 16.9707 253.563 17.0537 253.384 17.2197C253.205 17.3857 253.115 17.5892 253.115 17.8301C253.115 18.0319 253.18 18.1914 253.311 18.3086C253.444 18.4225 253.716 18.5576 254.126 18.7139L254.565 18.8848C255.565 19.2689 256.064 19.7832 256.064 20.4277C256.064 20.9193 255.853 21.3245 255.43 21.6436C255.007 21.9626 254.469 22.1221 253.818 22.1221C253.011 22.1221 252.316 22 251.733 21.7559ZM261.348 21.873C260.791 22.0391 260.257 22.1221 259.746 22.1221C258.812 22.1221 258.076 21.8682 257.539 21.3604C257.005 20.8493 256.738 20.1478 256.738 19.2559C256.738 18.403 256.992 17.734 257.5 17.249C258.008 16.7607 258.708 16.5166 259.6 16.5166C260.163 16.5166 260.739 16.598 261.328 16.7607V18.1426H260.635L260.63 18.0547C260.604 17.6478 260.555 17.4004 260.483 17.3125C260.301 17.0846 260.02 16.9707 259.639 16.9707C259.183 16.9707 258.841 17.1562 258.613 17.5273C258.385 17.8984 258.271 18.4551 258.271 19.1973C258.271 19.9557 258.423 20.5254 258.726 20.9062C259.032 21.2871 259.487 21.4775 260.093 21.4775C260.467 21.4775 260.885 21.3864 261.348 21.2041V21.873ZM264.937 22.1221C264.071 22.1221 263.389 21.873 262.891 21.375C262.396 20.8737 262.148 20.1885 262.148 19.3193C262.148 18.4502 262.396 17.7666 262.891 17.2686C263.389 16.7673 264.071 16.5166 264.937 16.5166C265.799 16.5166 266.478 16.7673 266.973 17.2686C267.471 17.7666 267.72 18.4502 267.72 19.3193C267.72 20.1885 267.471 20.8737 266.973 21.375C266.478 21.873 265.799 22.1221 264.937 22.1221ZM264.937 21.6094C265.334 21.6094 265.63 21.4189 265.825 21.0381C266.024 20.654 266.123 20.0811 266.123 19.3193C266.123 18.5544 266.024 17.9814 265.825 17.6006C265.63 17.2197 265.334 17.0293 264.937 17.0293C264.539 17.0293 264.242 17.2197 264.043 17.6006C263.844 17.9814 263.745 18.5544 263.745 19.3193C263.745 20.0811 263.844 20.654 264.043 21.0381C264.242 21.4189 264.539 21.6094 264.937 21.6094ZM272.183 22V20.9893C271.965 21.3669 271.702 21.6501 271.396 21.8389C271.09 22.0277 270.741 22.1221 270.347 22.1221C269.868 22.1221 269.492 21.9723 269.219 21.6729C268.945 21.3734 268.809 20.96 268.809 20.4326V18.0547C268.809 17.6185 268.776 17.3564 268.711 17.2686C268.646 17.1774 268.449 17.1204 268.12 17.0977L268.027 17.0928V16.6387H270.254V20.2666C270.254 20.641 270.303 20.8997 270.4 21.043C270.498 21.1829 270.672 21.2529 270.923 21.2529C271.154 21.2529 271.374 21.1862 271.582 21.0527C271.794 20.9193 271.994 20.7207 272.183 20.457V18.0547C272.183 17.6185 272.15 17.3564 272.085 17.2686C272.02 17.1774 271.821 17.1204 271.489 17.0977L271.401 17.0928V16.6387H273.628V20.584C273.628 21.0202 273.66 21.2839 273.726 21.375C273.794 21.4629 273.993 21.5182 274.321 21.541L274.414 21.5459V22H272.183ZM276.948 17.6494C277.17 17.2718 277.433 16.9886 277.739 16.7998C278.045 16.611 278.394 16.5166 278.784 16.5166C279.266 16.5166 279.644 16.6647 279.917 16.9609C280.187 17.2604 280.322 17.6755 280.322 18.2061V20.584C280.322 21.0202 280.355 21.2839 280.42 21.375C280.488 21.4629 280.687 21.5182 281.016 21.541L281.108 21.5459V22H278.096V21.5459L278.184 21.541C278.516 21.5182 278.714 21.4629 278.779 21.375C278.844 21.2839 278.877 21.0202 278.877 20.584V18.3721C278.877 17.9912 278.831 17.734 278.74 17.6006C278.652 17.4639 278.481 17.3955 278.228 17.3955C278.009 17.3955 277.793 17.4622 277.578 17.5957C277.367 17.7259 277.157 17.9245 276.948 18.1914V20.584C276.948 21.0202 276.981 21.2839 277.046 21.375C277.114 21.4629 277.313 21.5182 277.642 21.541L277.734 21.5459V22H274.722V21.5459L274.814 21.541C275.143 21.5182 275.34 21.4629 275.405 21.375C275.47 21.2839 275.503 21.0202 275.503 20.584V18.0547C275.503 17.6185 275.47 17.3564 275.405 17.2686C275.34 17.1774 275.143 17.1204 274.814 17.0977L274.722 17.0928V16.6387H276.948V17.6494ZM284.746 21.9561C284.443 22.0667 284.147 22.1221 283.857 22.1221C283.255 22.1221 282.803 21.974 282.5 21.6777C282.201 21.3783 282.051 20.9307 282.051 20.335V17.1221H281.387V16.6387H282.051V15.7354L283.496 15.4814V16.6387H284.683V17.1221H283.496V20.3691C283.496 20.8477 283.543 21.1634 283.638 21.3164C283.732 21.4694 283.927 21.5459 284.224 21.5459C284.386 21.5459 284.561 21.5085 284.746 21.4336V21.9561ZM288.911 21.917V20.5547H289.575L289.58 20.6426C289.593 20.8314 289.6 20.9355 289.6 20.9551C289.6 21.196 289.699 21.3864 289.897 21.5264C290.099 21.6631 290.374 21.7314 290.723 21.7314C291.143 21.7314 291.484 21.585 291.748 21.292C292.012 20.9958 292.144 20.6117 292.144 20.1396C292.144 19.5765 291.965 19.1452 291.606 18.8457C291.248 18.543 290.736 18.3916 290.068 18.3916H289.575V17.9424H289.99C290.641 17.9424 291.128 17.8187 291.45 17.5713C291.776 17.3239 291.938 16.9544 291.938 16.4629C291.938 16.0397 291.825 15.6979 291.597 15.4375C291.369 15.1738 291.071 15.042 290.703 15.042C290.361 15.042 290.081 15.1266 289.863 15.2959C289.762 15.3773 289.702 15.4993 289.683 15.6621L289.658 16.1553L289.653 16.248H288.96V14.9102C289.604 14.6986 290.272 14.5928 290.962 14.5928C291.733 14.5928 292.331 14.7409 292.754 15.0371C293.177 15.3301 293.389 15.7484 293.389 16.292C293.389 16.7217 293.249 17.0944 292.969 17.4102C292.689 17.7259 292.288 17.9587 291.768 18.1084C292.37 18.2354 292.83 18.4681 293.149 18.8066C293.472 19.1452 293.633 19.57 293.633 20.0811C293.633 20.7288 293.385 21.2415 292.891 21.6191C292.399 21.9935 291.729 22.1807 290.879 22.1807C290.488 22.1807 290.129 22.1579 289.8 22.1123C289.474 22.07 289.178 22.0049 288.911 21.917ZM297.476 22.1807C296.639 22.1807 295.962 21.8324 295.444 21.1357C294.93 20.4359 294.673 19.5228 294.673 18.3965C294.673 17.2604 294.93 16.3424 295.444 15.6426C295.962 14.9427 296.639 14.5928 297.476 14.5928C298.309 14.5928 298.983 14.9427 299.497 15.6426C300.015 16.3424 300.273 17.2604 300.273 18.3965C300.273 19.5228 300.015 20.4359 299.497 21.1357C298.983 21.8324 298.309 22.1807 297.476 22.1807ZM297.476 21.7266C297.899 21.7266 298.215 21.4482 298.423 20.8916C298.634 20.335 298.74 19.5016 298.74 18.3916C298.74 17.2751 298.633 16.4385 298.418 15.8818C298.203 15.3219 297.879 15.042 297.446 15.042C297.036 15.042 296.727 15.3219 296.519 15.8818C296.313 16.4385 296.211 17.2751 296.211 18.3916C296.211 19.5016 296.317 20.335 296.528 20.8916C296.74 21.4482 297.056 21.7266 297.476 21.7266ZM300.815 22.1807L307.012 14.5928H307.969L301.724 22.1807H300.815ZM302.495 18.4014C301.919 18.4014 301.486 18.25 301.196 17.9473C300.91 17.6445 300.767 17.1921 300.767 16.5898C300.767 15.9844 300.91 15.5303 301.196 15.2275C301.486 14.9248 301.919 14.7734 302.495 14.7734C303.071 14.7734 303.503 14.9248 303.789 15.2275C304.079 15.5303 304.224 15.9844 304.224 16.5898C304.224 17.1921 304.079 17.6445 303.789 17.9473C303.503 18.25 303.071 18.4014 302.495 18.4014ZM302.495 17.9375C302.707 17.9375 302.865 17.8252 302.969 17.6006C303.076 17.376 303.13 17.0391 303.13 16.5898C303.13 16.1374 303.076 15.7988 302.969 15.5742C302.865 15.3496 302.707 15.2373 302.495 15.2373C302.284 15.2373 302.124 15.3496 302.017 15.5742C301.909 15.7988 301.855 16.1374 301.855 16.5898C301.855 17.0391 301.909 17.376 302.017 17.6006C302.124 17.8252 302.284 17.9375 302.495 17.9375ZM306.294 22C305.718 22 305.285 21.8486 304.995 21.5459C304.709 21.2432 304.565 20.7907 304.565 20.1885C304.565 19.583 304.709 19.1305 304.995 18.8311C305.285 18.5283 305.718 18.377 306.294 18.377C306.87 18.377 307.301 18.5283 307.588 18.8311C307.878 19.1305 308.022 19.583 308.022 20.1885C308.022 20.7907 307.878 21.2432 307.588 21.5459C307.301 21.8486 306.87 22 306.294 22ZM306.294 21.5361C306.509 21.5361 306.668 21.4238 306.772 21.1992C306.88 20.9746 306.934 20.6393 306.934 20.1934C306.934 19.7409 306.88 19.4023 306.772 19.1777C306.668 18.9499 306.509 18.8359 306.294 18.8359C306.082 18.8359 305.923 18.9499 305.815 19.1777C305.708 19.4023 305.654 19.7409 305.654 20.1934C305.654 20.6393 305.708 20.9746 305.815 21.1992C305.923 21.4238 306.082 21.5361 306.294 21.5361Z" fill="#453A3C"/>
<defs>
<filter id="filter0_d_889_2921" x="0" y="0" width="108" height="43" filterUnits="userSpaceOnUse" color-interpolation-filters="sRGB">
<feFlood flood-opacity="0" result="BackgroundImageFix"/>
<feColorMatrix in="SourceAlpha" type="matrix" values="0 0 0 0 0 0 0 0 0 0 0 0 0 0 0 0 0 0 127 0" result="hardAlpha"/>
<feOffset dy="4"/>
<feGaussianBlur stdDeviation="2"/>
<feComposite in2="hardAlpha" operator="out"/>
<feColorMatrix type="matrix" values="0 0 0 0 0 0 0 0 0 0 0 0 0 0 0 0 0 0 0.25 0"/>
<feBlend mode="normal" in2="BackgroundImageFix" result="effect1_dropShadow_889_2921"/>
<feBlend mode="normal" in="SourceGraphic" in2="effect1_dropShadow_889_2921" result="shape"/>
</filter>
<filter id="filter1_d_889_2921" x="110" y="0" width="108" height="43" filterUnits="userSpaceOnUse" color-interpolation-filters="sRGB">
<feFlood flood-opacity="0" result="BackgroundImageFix"/>
<feColorMatrix in="SourceAlpha" type="matrix" values="0 0 0 0 0 0 0 0 0 0 0 0 0 0 0 0 0 0 127 0" result="hardAlpha"/>
<feOffset dy="4"/>
<feGaussianBlur stdDeviation="2"/>
<feComposite in2="hardAlpha" operator="out"/>
<feColorMatrix type="matrix" values="0 0 0 0 0 0 0 0 0 0 0 0 0 0 0 0 0 0 0.25 0"/>
<feBlend mode="normal" in2="BackgroundImageFix" result="effect1_dropShadow_889_2921"/>
<feBlend mode="normal" in="SourceGraphic" in2="effect1_dropShadow_889_2921" result="shape"/>
</filter>
<filter id="filter2_d_889_2921" x="220" y="0" width="108" height="43" filterUnits="userSpaceOnUse" color-interpolation-filters="sRGB">
<feFlood flood-opacity="0" result="BackgroundImageFix"/>
<feColorMatrix in="SourceAlpha" type="matrix" values="0 0 0 0 0 0 0 0 0 0 0 0 0 0 0 0 0 0 127 0" result="hardAlpha"/>
<feOffset dy="4"/>
<feGaussianBlur stdDeviation="2"/>
<feComposite in2="hardAlpha" operator="out"/>
<feColorMatrix type="matrix" values="0 0 0 0 0 0 0 0 0 0 0 0 0 0 0 0 0 0 0.25 0"/>
<feBlend mode="normal" in2="BackgroundImageFix" result="effect1_dropShadow_889_2921"/>
<feBlend mode="normal" in="SourceGraphic" in2="effect1_dropShadow_889_2921" result="shape"/>
</filter>
</defs>
</svg>
