<svg width="58" height="9" viewBox="0 0 58 9" fill="none" xmlns="http://www.w3.org/2000/svg">
<path d="M3.34619 7.66699V8H0.230957V7.66699L0.333008 7.66162C0.766276 7.63298 1.0223 7.5721 1.10107 7.479C1.18343 7.38232 1.22461 7.09229 1.22461 6.60889V1.44189C1.22461 0.954915 1.18343 0.664876 1.10107 0.571777C1.0223 0.478678 0.766276 0.417806 0.333008 0.38916L0.230957 0.378418V0.0507812H3.34619V0.378418L3.24414 0.38916C2.80729 0.417806 2.54948 0.478678 2.4707 0.571777C2.39193 0.664876 2.35254 0.954915 2.35254 1.44189V6.60889C2.35254 7.09229 2.39193 7.38232 2.4707 7.479C2.54948 7.5721 2.80729 7.63298 3.24414 7.66162L3.34619 7.66699ZM7.44971 7.96777C7.18115 8.07878 6.92513 8.13428 6.68164 8.13428C6.06217 8.13428 5.60921 7.97852 5.32275 7.66699C5.03988 7.35547 4.89844 6.85954 4.89844 6.1792V2.60205H4.03906V2.16699H4.89844V1.10889L5.96191 0.845703V2.16699H7.58398V2.60205H5.96191V6.31885C5.96191 6.82015 6.02816 7.17643 6.16064 7.3877C6.29313 7.59896 6.51872 7.70459 6.8374 7.70459C7.0057 7.70459 7.2098 7.64909 7.44971 7.53809V7.96777ZM13.1484 7.73682C12.4753 8.00179 11.8612 8.13428 11.3062 8.13428C10.4504 8.13428 9.75391 7.84603 9.2168 7.26953C8.68327 6.69303 8.4165 5.94466 8.4165 5.02441C8.4165 4.15072 8.65641 3.43457 9.13623 2.87598C9.61605 2.31738 10.2319 2.03809 10.9839 2.03809C11.6785 2.03809 12.2121 2.27262 12.5845 2.7417C12.9604 3.21077 13.1484 3.88037 13.1484 4.75049V4.85254H9.5874C9.5874 5.75846 9.74495 6.44238 10.0601 6.9043C10.3787 7.36621 10.8496 7.59717 11.4727 7.59717C12.1279 7.59717 12.6865 7.46289 13.1484 7.19434V7.73682ZM9.60889 4.51953H12.0259L12.0312 4.2832C12.0312 3.60645 11.9435 3.11768 11.7681 2.81689C11.5926 2.51611 11.3062 2.36572 10.9087 2.36572C10.5112 2.36572 10.1943 2.56087 9.95801 2.95117C9.72526 3.34147 9.60889 3.86426 9.60889 4.51953ZM15.9683 3.2627C16.2762 2.85449 16.5967 2.54834 16.9297 2.34424C17.2663 2.14014 17.6172 2.03809 17.9824 2.03809C18.4085 2.03809 18.7469 2.14014 18.9976 2.34424C19.2482 2.54834 19.4093 2.85449 19.481 3.2627C19.8211 2.85449 20.1649 2.54834 20.5122 2.34424C20.8595 2.14014 21.2087 2.03809 21.5596 2.03809C22.6051 2.03809 23.1279 2.611 23.1279 3.75684V6.60889C23.1279 7.09587 23.1655 7.3859 23.2407 7.479C23.3195 7.56852 23.5791 7.62939 24.0195 7.66162L24.1216 7.66699V8H21.0708V7.66699L21.1729 7.66162C21.6133 7.62939 21.8711 7.56852 21.9463 7.479C22.0251 7.3859 22.0645 7.09587 22.0645 6.60889V3.9502C22.0645 3.48828 22.0036 3.1696 21.8818 2.99414C21.7637 2.8151 21.5506 2.72559 21.2427 2.72559C20.9849 2.72559 20.7145 2.80078 20.4316 2.95117C20.1523 3.10156 19.8587 3.32715 19.5508 3.62793V6.60889C19.5508 7.09229 19.5902 7.38232 19.6689 7.479C19.7477 7.5721 20.0055 7.63298 20.4424 7.66162L20.5444 7.66699V8H17.4937V7.66699L17.5957 7.66162C18.0361 7.63298 18.2939 7.5721 18.3691 7.479C18.4479 7.3859 18.4873 7.09587 18.4873 6.60889V3.9502C18.4873 3.49544 18.4282 3.17855 18.3101 2.99951C18.1919 2.81689 17.9842 2.72559 17.687 2.72559C17.4077 2.72559 17.1248 2.80078 16.8384 2.95117C16.5519 3.10156 16.2619 3.32715 15.9683 3.62793V6.60889C15.9683 7.09587 16.0076 7.3859 16.0864 7.479C16.1652 7.5721 16.4248 7.63298 16.8652 7.66162L16.9673 7.66699V8H13.9165V7.66699L14.0186 7.66162C14.4518 7.63298 14.7078 7.5721 14.7866 7.479C14.869 7.38232 14.9102 7.09229 14.9102 6.60889V3.55811C14.9102 3.07471 14.869 2.78646 14.7866 2.69336C14.7078 2.60026 14.4518 2.5376 14.0186 2.50537L13.9165 2.5V2.16699H15.9683V3.2627ZM34.1387 8.10742L29.208 1.44727V6.60889C29.208 7.09587 29.2474 7.3859 29.3262 7.479C29.4049 7.56852 29.6646 7.62939 30.105 7.66162L30.2017 7.66699V8H27.7148V7.66699L27.8115 7.66162C28.252 7.62939 28.5116 7.56852 28.5903 7.479C28.6691 7.3859 28.7085 7.09587 28.7085 6.60889V1.44189C28.7085 0.951335 28.6691 0.661296 28.5903 0.571777C28.5116 0.478678 28.252 0.417806 27.8115 0.38916L27.7095 0.378418V0.0507812H29.498L34.0312 6.22217V1.44189C34.0312 0.954915 33.9901 0.664876 33.9077 0.571777C33.8289 0.478678 33.5711 0.417806 33.1343 0.38916L33.0376 0.378418V0.0507812H35.5137V0.378418L35.4116 0.38916C34.9748 0.417806 34.717 0.478678 34.6382 0.571777C34.5594 0.664876 34.52 0.954915 34.52 1.44189V8.10742H34.1387ZM39.8857 7.19971C39.2555 7.82275 38.6325 8.13428 38.0166 8.13428C37.5225 8.13428 37.1107 7.97852 36.7812 7.66699C36.4518 7.35189 36.2871 6.95801 36.2871 6.48535C36.2871 5.93392 36.502 5.48633 36.9316 5.14258C37.4222 4.7487 38.2529 4.55176 39.4238 4.55176H39.644V3.82666C39.644 2.90641 39.2949 2.44629 38.5967 2.44629C38.2708 2.44629 37.9826 2.54655 37.7319 2.74707C37.5851 2.86882 37.492 3.11768 37.4526 3.49365L37.4473 3.5957H36.7275V2.52686C37.4723 2.20101 38.1634 2.03809 38.8008 2.03809C40.0684 2.03809 40.7021 2.61995 40.7021 3.78369V6.3833C40.7021 6.8488 40.7415 7.17643 40.8203 7.36621C40.9027 7.55599 41.0441 7.65088 41.2446 7.65088C41.3162 7.65088 41.4111 7.63477 41.5293 7.60254L41.5615 8C41.3073 8.08952 41.0799 8.13428 40.8794 8.13428C40.3566 8.13428 40.0254 7.82275 39.8857 7.19971ZM39.644 7.08154V4.88477H39.397C38.7739 4.88477 38.2869 5.01367 37.936 5.27148C37.5851 5.5293 37.4097 5.88379 37.4097 6.33496C37.4097 6.67155 37.5189 6.95085 37.7373 7.17285C37.9557 7.39486 38.2279 7.50586 38.5537 7.50586C38.8617 7.50586 39.2251 7.36442 39.644 7.08154ZM43.9731 3.2627C44.2811 2.85449 44.6016 2.54834 44.9346 2.34424C45.2712 2.14014 45.6221 2.03809 45.9873 2.03809C46.4134 2.03809 46.7518 2.14014 47.0024 2.34424C47.2531 2.54834 47.4142 2.85449 47.4858 3.2627C47.826 2.85449 48.1698 2.54834 48.5171 2.34424C48.8644 2.14014 49.2135 2.03809 49.5645 2.03809C50.61 2.03809 51.1328 2.611 51.1328 3.75684V6.60889C51.1328 7.09587 51.1704 7.3859 51.2456 7.479C51.3244 7.56852 51.584 7.62939 52.0244 7.66162L52.1265 7.66699V8H49.0757V7.66699L49.1777 7.66162C49.6182 7.62939 49.876 7.56852 49.9512 7.479C50.0299 7.3859 50.0693 7.09587 50.0693 6.60889V3.9502C50.0693 3.48828 50.0085 3.1696 49.8867 2.99414C49.7686 2.8151 49.5555 2.72559 49.2476 2.72559C48.9897 2.72559 48.7194 2.80078 48.4365 2.95117C48.1572 3.10156 47.8636 3.32715 47.5557 3.62793V6.60889C47.5557 7.09229 47.5951 7.38232 47.6738 7.479C47.7526 7.5721 48.0104 7.63298 48.4473 7.66162L48.5493 7.66699V8H45.4985V7.66699L45.6006 7.66162C46.041 7.63298 46.2988 7.5721 46.374 7.479C46.4528 7.3859 46.4922 7.09587 46.4922 6.60889V3.9502C46.4922 3.49544 46.4331 3.17855 46.3149 2.99951C46.1968 2.81689 45.9891 2.72559 45.6919 2.72559C45.4126 2.72559 45.1297 2.80078 44.8433 2.95117C44.5568 3.10156 44.2668 3.32715 43.9731 3.62793V6.60889C43.9731 7.09587 44.0125 7.3859 44.0913 7.479C44.1701 7.5721 44.4297 7.63298 44.8701 7.66162L44.9722 7.66699V8H41.9214V7.66699L42.0234 7.66162C42.4567 7.63298 42.7127 7.5721 42.7915 7.479C42.8739 7.38232 42.915 7.09229 42.915 6.60889V3.55811C42.915 3.07471 42.8739 2.78646 42.7915 2.69336C42.7127 2.60026 42.4567 2.5376 42.0234 2.50537L41.9214 2.5V2.16699H43.9731V3.2627ZM57.3955 7.73682C56.7223 8.00179 56.1082 8.13428 55.5532 8.13428C54.6974 8.13428 54.001 7.84603 53.4639 7.26953C52.9303 6.69303 52.6636 5.94466 52.6636 5.02441C52.6636 4.15072 52.9035 3.43457 53.3833 2.87598C53.8631 2.31738 54.479 2.03809 55.231 2.03809C55.9256 2.03809 56.4591 2.27262 56.8315 2.7417C57.2075 3.21077 57.3955 3.88037 57.3955 4.75049V4.85254H53.8345C53.8345 5.75846 53.992 6.44238 54.3071 6.9043C54.6258 7.36621 55.0967 7.59717 55.7197 7.59717C56.375 7.59717 56.9336 7.46289 57.3955 7.19434V7.73682ZM53.856 4.51953H56.2729L56.2783 4.2832C56.2783 3.60645 56.1906 3.11768 56.0151 2.81689C55.8397 2.51611 55.5532 2.36572 55.1558 2.36572C54.7583 2.36572 54.4414 2.56087 54.2051 2.95117C53.9723 3.34147 53.856 3.86426 53.856 4.51953Z" fill="#453A3C"/>
</svg>
