<svg width="53" height="9" viewBox="0 0 53 9" fill="none" xmlns="http://www.w3.org/2000/svg">
<path d="M3.34619 7.66699V8H0.230957V7.66699L0.333008 7.66162C0.766276 7.63298 1.0223 7.5721 1.10107 7.479C1.18343 7.38232 1.22461 7.09229 1.22461 6.60889V1.44189C1.22461 0.954915 1.18343 0.664876 1.10107 0.571777C1.0223 0.478678 0.766276 0.417806 0.333008 0.38916L0.230957 0.378418V0.0507812H3.34619V0.378418L3.24414 0.38916C2.80729 0.417806 2.54948 0.478678 2.4707 0.571777C2.39193 0.664876 2.35254 0.954915 2.35254 1.44189V6.60889C2.35254 7.09229 2.39193 7.38232 2.4707 7.479C2.54948 7.5721 2.80729 7.63298 3.24414 7.66162L3.34619 7.66699ZM7.44971 7.96777C7.18115 8.07878 6.92513 8.13428 6.68164 8.13428C6.06217 8.13428 5.60921 7.97852 5.32275 7.66699C5.03988 7.35547 4.89844 6.85954 4.89844 6.1792V2.60205H4.03906V2.16699H4.89844V1.10889L5.96191 0.845703V2.16699H7.58398V2.60205H5.96191V6.31885C5.96191 6.82015 6.02816 7.17643 6.16064 7.3877C6.29313 7.59896 6.51872 7.70459 6.8374 7.70459C7.0057 7.70459 7.2098 7.64909 7.44971 7.53809V7.96777ZM13.1484 7.73682C12.4753 8.00179 11.8612 8.13428 11.3062 8.13428C10.4504 8.13428 9.75391 7.84603 9.2168 7.26953C8.68327 6.69303 8.4165 5.94466 8.4165 5.02441C8.4165 4.15072 8.65641 3.43457 9.13623 2.87598C9.61605 2.31738 10.2319 2.03809 10.9839 2.03809C11.6785 2.03809 12.2121 2.27262 12.5845 2.7417C12.9604 3.21077 13.1484 3.88037 13.1484 4.75049V4.85254H9.5874C9.5874 5.75846 9.74495 6.44238 10.0601 6.9043C10.3787 7.36621 10.8496 7.59717 11.4727 7.59717C12.1279 7.59717 12.6865 7.46289 13.1484 7.19434V7.73682ZM9.60889 4.51953H12.0259L12.0312 4.2832C12.0312 3.60645 11.9435 3.11768 11.7681 2.81689C11.5926 2.51611 11.3062 2.36572 10.9087 2.36572C10.5112 2.36572 10.1943 2.56087 9.95801 2.95117C9.72526 3.34147 9.60889 3.86426 9.60889 4.51953ZM15.9683 3.2627C16.2762 2.85449 16.5967 2.54834 16.9297 2.34424C17.2663 2.14014 17.6172 2.03809 17.9824 2.03809C18.4085 2.03809 18.7469 2.14014 18.9976 2.34424C19.2482 2.54834 19.4093 2.85449 19.481 3.2627C19.8211 2.85449 20.1649 2.54834 20.5122 2.34424C20.8595 2.14014 21.2087 2.03809 21.5596 2.03809C22.6051 2.03809 23.1279 2.611 23.1279 3.75684V6.60889C23.1279 7.09587 23.1655 7.3859 23.2407 7.479C23.3195 7.56852 23.5791 7.62939 24.0195 7.66162L24.1216 7.66699V8H21.0708V7.66699L21.1729 7.66162C21.6133 7.62939 21.8711 7.56852 21.9463 7.479C22.0251 7.3859 22.0645 7.09587 22.0645 6.60889V3.9502C22.0645 3.48828 22.0036 3.1696 21.8818 2.99414C21.7637 2.8151 21.5506 2.72559 21.2427 2.72559C20.9849 2.72559 20.7145 2.80078 20.4316 2.95117C20.1523 3.10156 19.8587 3.32715 19.5508 3.62793V6.60889C19.5508 7.09229 19.5902 7.38232 19.6689 7.479C19.7477 7.5721 20.0055 7.63298 20.4424 7.66162L20.5444 7.66699V8H17.4937V7.66699L17.5957 7.66162C18.0361 7.63298 18.2939 7.5721 18.3691 7.479C18.4479 7.3859 18.4873 7.09587 18.4873 6.60889V3.9502C18.4873 3.49544 18.4282 3.17855 18.3101 2.99951C18.1919 2.81689 17.9842 2.72559 17.687 2.72559C17.4077 2.72559 17.1248 2.80078 16.8384 2.95117C16.5519 3.10156 16.2619 3.32715 15.9683 3.62793V6.60889C15.9683 7.09587 16.0076 7.3859 16.0864 7.479C16.1652 7.5721 16.4248 7.63298 16.8652 7.66162L16.9673 7.66699V8H13.9165V7.66699L14.0186 7.66162C14.4518 7.63298 14.7078 7.5721 14.7866 7.479C14.869 7.38232 14.9102 7.09229 14.9102 6.60889V3.55811C14.9102 3.07471 14.869 2.78646 14.7866 2.69336C14.7078 2.60026 14.4518 2.5376 14.0186 2.50537L13.9165 2.5V2.16699H15.9683V3.2627ZM29.8203 4.68604V6.60889C29.8203 7.08512 29.8633 7.37516 29.9492 7.479C30.0352 7.57926 30.2912 7.64014 30.7173 7.66162L30.9482 7.66699V8H27.7095V7.66699L27.8115 7.66162C28.2448 7.63298 28.5008 7.5721 28.5796 7.479C28.6619 7.38232 28.7031 7.09229 28.7031 6.60889V1.44189C28.7031 0.954915 28.6619 0.664876 28.5796 0.571777C28.5008 0.478678 28.2448 0.417806 27.8115 0.38916L27.7095 0.378418V0.0507812H30.0728L30.8569 0.0239258L31.2275 0.0131836C32.7744 0.0131836 33.5479 0.713216 33.5479 2.11328C33.5479 2.96908 33.265 3.61182 32.6992 4.0415C32.137 4.47119 31.2902 4.68604 30.1587 4.68604H29.8203ZM29.8203 4.3208H30.2231C30.9357 4.3208 31.4692 4.13818 31.8237 3.77295C32.1782 3.40771 32.3555 2.86165 32.3555 2.13477C32.3555 1.5153 32.2194 1.07308 31.9473 0.808105C31.6787 0.543132 31.2275 0.410645 30.5938 0.410645H29.8203V4.3208ZM36.0347 3.75684V6.60889C36.0347 7.09229 36.0758 7.38232 36.1582 7.479C36.2441 7.57568 36.502 7.63656 36.9316 7.66162L37.1626 7.66699V8H33.9829V7.66699L34.085 7.66162C34.5182 7.63298 34.7743 7.5721 34.853 7.479C34.9354 7.38232 34.9766 7.09229 34.9766 6.60889V3.55811C34.9766 3.07471 34.9354 2.78646 34.853 2.69336C34.7743 2.60026 34.5182 2.5376 34.085 2.50537L33.9829 2.5V2.16699H36.0347V3.2627C36.5181 2.44629 37.1501 2.03809 37.9307 2.03809C38.0381 2.03809 38.158 2.05778 38.2905 2.09717V3.69238H37.6943L37.689 3.5957C37.6496 3.2627 37.6138 3.06576 37.5815 3.00488C37.5529 2.94043 37.4723 2.9082 37.3398 2.9082C36.8099 2.9082 36.3748 3.19108 36.0347 3.75684ZM40.8794 2.16699V6.60889C40.8794 7.09587 40.9188 7.3859 40.9976 7.479C41.0763 7.5721 41.3359 7.63298 41.7764 7.66162L41.8784 7.66699V8H38.8276V7.66699L38.9297 7.66162C39.363 7.63298 39.619 7.5721 39.6978 7.479C39.7801 7.38232 39.8213 7.09229 39.8213 6.60889V3.55811C39.8213 3.07471 39.7801 2.78646 39.6978 2.69336C39.619 2.60026 39.363 2.5376 38.9297 2.50537L38.8276 2.5V2.16699H40.8794ZM39.8213 1.10889V0.0507812H40.8794V1.10889H39.8213ZM47.0508 7.80127C46.4922 8.02327 45.9461 8.13428 45.4126 8.13428C44.5604 8.13428 43.8693 7.84961 43.3394 7.28027C42.8094 6.71094 42.5444 5.96973 42.5444 5.05664C42.5444 4.14355 42.7987 3.41309 43.3071 2.86523C43.8192 2.3138 44.4995 2.03809 45.3481 2.03809C45.7814 2.03809 46.349 2.12581 47.0508 2.30127V3.69238H46.3901L46.3848 3.5957C46.3848 2.79362 46.0321 2.39258 45.3267 2.39258C44.8146 2.39258 44.4064 2.62533 44.1021 3.09082C43.8013 3.55632 43.6509 4.18652 43.6509 4.98145C43.6509 5.79427 43.8299 6.43522 44.188 6.9043C44.5461 7.37337 45.033 7.60791 45.6489 7.60791C46.1789 7.60791 46.6462 7.51839 47.0508 7.33936V7.80127ZM52.873 7.73682C52.1999 8.00179 51.5858 8.13428 51.0308 8.13428C50.175 8.13428 49.4785 7.84603 48.9414 7.26953C48.4079 6.69303 48.1411 5.94466 48.1411 5.02441C48.1411 4.15072 48.381 3.43457 48.8608 2.87598C49.3407 2.31738 49.9565 2.03809 50.7085 2.03809C51.4032 2.03809 51.9367 2.27262 52.3091 2.7417C52.6851 3.21077 52.873 3.88037 52.873 4.75049V4.85254H49.312C49.312 5.75846 49.4696 6.44238 49.7847 6.9043C50.1034 7.36621 50.5742 7.59717 51.1973 7.59717C51.8525 7.59717 52.4111 7.46289 52.873 7.19434V7.73682ZM49.3335 4.51953H51.7505L51.7559 4.2832C51.7559 3.60645 51.6681 3.11768 51.4927 2.81689C51.3172 2.51611 51.0308 2.36572 50.6333 2.36572C50.2358 2.36572 49.9189 2.56087 49.6826 2.95117C49.4499 3.34147 49.3335 3.86426 49.3335 4.51953Z" fill="#453A3C"/>
</svg>
