<svg width="180" height="30" viewBox="0 0 180 30" fill="none" xmlns="http://www.w3.org/2000/svg">
<rect x="0.5" y="0.5" width="179" height="29" rx="4.5" fill="#AB3333"/>
<rect x="0.5" y="0.5" width="179" height="29" rx="4.5" stroke="#E3E2E0"/>
<path d="M75.6348 19.8857V17.9243H76.5742L76.5806 18.0767C76.6102 18.631 76.7181 18.9844 76.9043 19.1367C77.2894 19.4499 77.7464 19.6064 78.2754 19.6064C78.7747 19.6064 79.1789 19.452 79.4878 19.1431C79.8009 18.8341 79.9575 18.43 79.9575 17.9307C79.9575 17.5371 79.8665 17.2197 79.6846 16.9785C79.5026 16.7415 79.1514 16.4792 78.6309 16.1914L78.0024 15.8486C76.4325 14.9811 75.6475 14.0374 75.6475 13.0176C75.6475 12.2178 75.931 11.5767 76.498 11.0942C77.0651 10.6076 77.8184 10.3643 78.7578 10.3643C79.4941 10.3643 80.3363 10.5039 81.2842 10.7832V12.6748H80.3384L80.332 12.5605C80.2982 11.9681 80.2114 11.5999 80.0718 11.4561C79.7586 11.1471 79.3651 10.9927 78.8911 10.9927C78.4891 10.9927 78.1484 11.1387 77.8691 11.4307C77.5898 11.7184 77.4502 12.0739 77.4502 12.4971C77.4502 12.8187 77.5412 13.0916 77.7231 13.3159C77.9093 13.536 78.2606 13.7941 78.7769 14.0903L79.4116 14.4585C80.3384 14.9917 80.9731 15.4657 81.3159 15.8804C81.6545 16.2993 81.8237 16.8092 81.8237 17.4102C81.8237 18.2692 81.5021 18.9548 80.8589 19.4668C80.2199 19.9788 79.3587 20.2349 78.2754 20.2349C77.5094 20.2349 76.6292 20.1185 75.6348 19.8857ZM86.7368 19.1938C86.4025 19.5155 86.0597 19.7567 85.7085 19.9175C85.3615 20.0783 85.006 20.1587 84.6421 20.1587C84.0243 20.1587 83.5122 19.9683 83.106 19.5874C82.6997 19.2023 82.4966 18.7178 82.4966 18.1338C82.4966 17.4525 82.7547 16.9087 83.271 16.5024C83.5799 16.257 83.946 16.0877 84.3691 15.9946C84.7923 15.8973 85.389 15.8486 86.1592 15.8486H86.4766V15.0044C86.4766 14.4077 86.4004 14.0015 86.248 13.7856C86.0999 13.5698 85.8228 13.4619 85.4165 13.4619C84.9214 13.4619 84.549 13.5952 84.2993 13.8618C84.2147 13.9465 84.1597 14.23 84.1343 14.7124L84.1279 14.833H83.106V13.4238C83.91 13.0557 84.75 12.8716 85.626 12.8716C86.5062 12.8716 87.1812 13.0535 87.6509 13.4175C88.1206 13.7814 88.3555 14.304 88.3555 14.9854V18.0449C88.3555 18.5866 88.3957 18.9548 88.4761 19.1494C88.5522 19.3483 88.6982 19.4478 88.9141 19.4478C88.9775 19.4478 89.0516 19.4351 89.1362 19.4097L89.2188 20C88.8929 20.1058 88.5734 20.1587 88.2603 20.1587C87.9175 20.1587 87.6191 20.0783 87.3652 19.9175C87.1113 19.7567 86.9019 19.5155 86.7368 19.1938ZM86.4766 18.7305V16.4199H86.229C85.6027 16.4199 85.1309 16.5469 84.8135 16.8008C84.5003 17.0505 84.3438 17.4271 84.3438 17.9307C84.3438 18.3031 84.4432 18.6014 84.6421 18.8257C84.8452 19.0457 85.116 19.1558 85.4546 19.1558C85.645 19.1558 85.8249 19.1198 85.9941 19.0479C86.1634 18.9759 86.3242 18.8701 86.4766 18.7305ZM93.3955 20.0762L90.8945 14.8965C90.5983 14.321 90.3846 13.9718 90.2534 13.8491C90.1265 13.7222 89.9022 13.6481 89.5806 13.627L89.46 13.6206V13.0303H93.3765V13.6206L93.2559 13.627C92.8073 13.6566 92.5767 13.7412 92.564 13.8809C92.5555 13.9782 92.6909 14.3167 92.9702 14.8965L94.354 17.7783L95.7822 14.8965C96.0658 14.3294 96.2075 13.9782 96.2075 13.8428C96.2075 13.7285 95.9811 13.6566 95.5283 13.627L95.4141 13.6206V13.0303H97.9976V13.6206L97.877 13.627C97.5469 13.6481 97.3247 13.7137 97.2104 13.8237C97.0962 13.9295 96.8825 14.2808 96.5693 14.8774L93.9731 20.0762H93.3955ZM104.682 19.7271C103.852 20.0148 103.044 20.1587 102.257 20.1587C101.068 20.1587 100.126 19.8244 99.4321 19.1558C98.7424 18.4871 98.3975 17.5794 98.3975 16.4326C98.3975 15.3747 98.7085 14.5177 99.3306 13.8618C99.9569 13.2017 100.771 12.8716 101.774 12.8716C103.713 12.8716 104.682 14.0607 104.682 16.439V16.5786H100.327C100.327 17.4588 100.532 18.119 100.943 18.5591C101.353 18.9992 101.969 19.2192 102.79 19.2192C103.349 19.2192 103.979 19.0669 104.682 18.7622V19.7271ZM100.372 15.9883H102.828V15.7661C102.828 14.924 102.743 14.3294 102.574 13.9824C102.405 13.6354 102.113 13.4619 101.698 13.4619C101.258 13.4619 100.926 13.6735 100.702 14.0967C100.482 14.5156 100.372 15.1462 100.372 15.9883Z" fill="white"/>
</svg>
