<svg width="320" height="36" viewBox="0 0 320 36" fill="none" xmlns="http://www.w3.org/2000/svg">
<rect x="0.5" y="1.01123" width="319" height="33.573" rx="7.5" fill="white"/>
<rect x="0.5" y="1.01123" width="319" height="33.573" rx="7.5" stroke="#E3E2E0"/>
<path d="M38.2743 21.3647V19.9731H38.787L38.7919 20.061C38.8016 20.2238 38.8065 20.3459 38.8065 20.4272C38.8065 20.6844 38.9123 20.8781 39.1239 21.0083C39.469 21.2231 39.8498 21.3306 40.2665 21.3306C40.6994 21.3306 41.038 21.2085 41.2821 20.9644C41.5262 20.717 41.6483 20.3768 41.6483 19.9438C41.6483 19.5793 41.5702 19.2896 41.4139 19.0747C41.2577 18.8599 40.9533 18.6255 40.5009 18.3716L39.9882 18.0786C38.8814 17.4536 38.328 16.7716 38.328 16.0327C38.328 15.4761 38.5266 15.0155 38.9237 14.6509C39.3241 14.2863 39.8254 14.104 40.4276 14.104C40.688 14.104 40.9696 14.13 41.2723 14.1821C41.5783 14.231 41.9055 14.3075 42.2538 14.4116V15.6958H41.7118L41.7069 15.6128C41.6939 15.437 41.6874 15.3084 41.6874 15.2271C41.6874 14.9536 41.5897 14.7534 41.3944 14.6265C41.1991 14.4963 40.8931 14.4312 40.4764 14.4312C40.1281 14.4312 39.8449 14.5467 39.6268 14.7778C39.412 15.0057 39.3046 15.3068 39.3046 15.6812C39.3046 16.0002 39.3794 16.2638 39.5292 16.4722C39.6789 16.6805 39.9491 16.8953 40.3397 17.1167L40.8524 17.4097C41.5621 17.8133 42.0406 18.1649 42.288 18.4644C42.5354 18.7638 42.6591 19.1398 42.6591 19.5923C42.6591 20.1945 42.4344 20.6958 41.9852 21.0962C41.5393 21.4933 40.981 21.6919 40.3104 21.6919C39.9198 21.6919 39.5536 21.6642 39.2118 21.6089C38.8733 21.5535 38.5608 21.4722 38.2743 21.3647ZM47.8983 21.272C47.2863 21.5129 46.7281 21.6333 46.2235 21.6333C45.4455 21.6333 44.8124 21.3713 44.3241 20.8472C43.8391 20.3231 43.5966 19.6427 43.5966 18.8062C43.5966 18.0119 43.8147 17.3608 44.2509 16.853C44.6871 16.3452 45.2469 16.0913 45.9305 16.0913C46.5621 16.0913 47.0471 16.3045 47.3856 16.731C47.7274 17.1574 47.8983 17.7661 47.8983 18.5571V18.6499H44.661C44.661 19.4735 44.8042 20.0952 45.0907 20.5151C45.3804 20.9351 45.8085 21.145 46.3749 21.145C46.9706 21.145 47.4784 21.0229 47.8983 20.7788V21.272ZM44.6805 18.3472H46.8778L46.8827 18.1323C46.8827 17.5171 46.8029 17.0728 46.6434 16.7993C46.4839 16.5259 46.2235 16.3892 45.8622 16.3892C45.5009 16.3892 45.2128 16.5666 44.9979 16.9214C44.7863 17.2762 44.6805 17.7515 44.6805 18.3472ZM52.1757 20.7837C51.6027 21.3501 51.0363 21.6333 50.4764 21.6333C50.0272 21.6333 49.6529 21.4917 49.3534 21.2085C49.0539 20.922 48.9042 20.564 48.9042 20.1343C48.9042 19.633 49.0995 19.2261 49.4901 18.9136C49.9361 18.5555 50.6913 18.3765 51.7557 18.3765H51.9559V17.7173C51.9559 16.8807 51.6385 16.4624 51.0038 16.4624C50.7076 16.4624 50.4455 16.5535 50.2177 16.7358C50.0842 16.8465 49.9996 17.0728 49.9637 17.4146L49.9589 17.5073H49.3046V16.5356C49.9816 16.2394 50.6099 16.0913 51.1893 16.0913C52.3417 16.0913 52.9178 16.6203 52.9178 17.6782V20.0415C52.9178 20.4647 52.9537 20.7625 53.0253 20.9351C53.1001 21.1076 53.2287 21.1938 53.411 21.1938C53.4761 21.1938 53.5624 21.1792 53.6698 21.1499L53.6991 21.5112C53.468 21.5926 53.2613 21.6333 53.079 21.6333C52.6037 21.6333 52.3026 21.3501 52.1757 20.7837ZM51.9559 20.6763V18.6792H51.7313C51.1649 18.6792 50.7222 18.7964 50.4032 19.0308C50.0842 19.2651 49.9247 19.5874 49.9247 19.9976C49.9247 20.3035 50.024 20.5575 50.2225 20.7593C50.4211 20.9611 50.6685 21.062 50.9647 21.062C51.2447 21.062 51.5751 20.9334 51.9559 20.6763ZM55.8915 17.6538V20.2466C55.8915 20.686 55.9289 20.9497 56.0038 21.0376C56.0819 21.1255 56.3163 21.1808 56.7069 21.2036L56.9169 21.2085V21.5112H54.0262V21.2085L54.119 21.2036C54.5129 21.1776 54.7456 21.1222 54.8173 21.0376C54.8921 20.9497 54.9296 20.686 54.9296 20.2466V17.4731C54.9296 17.0337 54.8921 16.7716 54.8173 16.687C54.7456 16.6024 54.5129 16.5454 54.119 16.5161L54.0262 16.5112V16.2085H55.8915V17.2046C56.3309 16.4624 56.9055 16.0913 57.6151 16.0913C57.7128 16.0913 57.8218 16.1092 57.9423 16.145V17.5952H57.4003L57.3954 17.5073C57.3596 17.2046 57.327 17.0256 57.2977 16.9702C57.2717 16.9116 57.1984 16.8823 57.078 16.8823C56.5962 16.8823 56.2007 17.1395 55.8915 17.6538ZM62.83 21.3306C62.3221 21.5324 61.8257 21.6333 61.3407 21.6333C60.566 21.6333 59.9377 21.3745 59.4559 20.8569C58.9742 20.3394 58.7333 19.6655 58.7333 18.8354C58.7333 18.0054 58.9644 17.3413 59.4266 16.8433C59.8921 16.342 60.5106 16.0913 61.2821 16.0913C61.676 16.0913 62.1919 16.1711 62.83 16.3306V17.5952H62.2294L62.2245 17.5073C62.2245 16.7782 61.9038 16.4136 61.2626 16.4136C60.7971 16.4136 60.426 16.6252 60.1493 17.0483C59.8759 17.4715 59.7391 18.0444 59.7391 18.7671C59.7391 19.506 59.9019 20.0887 60.2274 20.5151C60.5529 20.9416 60.9956 21.1548 61.5555 21.1548C62.0373 21.1548 62.4621 21.0734 62.83 20.9106V21.3306ZM65.3837 17.2046C65.6278 16.8335 65.9094 16.5552 66.2284 16.3696C66.5474 16.1841 66.9038 16.0913 67.2977 16.0913C67.7535 16.0913 68.1115 16.241 68.3719 16.5405C68.6291 16.84 68.7577 17.2518 68.7577 17.7759V20.2466C68.7805 20.7316 68.8179 21.005 68.87 21.0669C68.9221 21.1287 69.1565 21.1743 69.5731 21.2036L69.661 21.2085V21.5112H66.8925V21.2085L66.9803 21.2036C67.397 21.1743 67.6314 21.1287 67.6835 21.0669C67.7356 21.005 67.773 20.7316 67.7958 20.2466V17.9272C67.7958 17.4715 67.7356 17.1558 67.6151 16.98C67.4979 16.8009 67.2863 16.7114 66.9803 16.7114C66.7655 16.7114 66.5246 16.7798 66.2577 16.9165C65.9908 17.05 65.6994 17.2534 65.3837 17.5269V20.2466C65.3837 20.6893 65.4195 20.953 65.4911 21.0376C65.5627 21.1222 65.7987 21.1776 66.1991 21.2036L66.2919 21.2085V21.5112H63.5184V21.2085L63.6112 21.2036C64.0051 21.1776 64.2378 21.1222 64.3094 21.0376C64.3843 20.9497 64.4218 20.686 64.4218 20.2466V15.0659C64.4218 14.6265 64.3843 14.3644 64.3094 14.2798C64.2378 14.1919 64.0051 14.1349 63.6112 14.1089L63.5184 14.104V13.8013H65.3837V17.2046ZM74.8514 18.0054V20.2466C74.8514 20.6307 74.8856 20.883 74.954 21.0034C75.0256 21.1206 75.1753 21.1792 75.4032 21.1792C75.4162 21.1792 75.5432 21.1873 75.7841 21.2036L75.8768 21.2085V21.5112H72.9227V21.2085L73.0155 21.2036C73.4094 21.1776 73.6421 21.1222 73.7137 21.0376C73.7886 20.9497 73.826 20.686 73.826 20.2466V15.5493C73.826 15.1066 73.7886 14.8429 73.7137 14.7583C73.6421 14.6737 73.4094 14.6183 73.0155 14.5923L72.9227 14.5825V14.2847H77.8007V15.5493H77.2587L77.2538 15.4565C77.2277 15.0073 77.1936 14.7648 77.1512 14.729C77.1089 14.6932 76.8485 14.6753 76.37 14.6753H74.8514V17.6099H76.1747C76.4677 17.6099 76.6467 17.5952 76.7118 17.5659C76.7769 17.5366 76.8176 17.382 76.8339 17.1021L76.8387 17.0142H77.2294V18.6108H76.8387L76.8339 18.5181C76.8176 18.2707 76.7769 18.1242 76.7118 18.0786C76.6467 18.0298 76.4677 18.0054 76.1747 18.0054H74.8514ZM80.2469 13.8013V20.2466C80.2469 20.6893 80.2828 20.953 80.3544 21.0376C80.426 21.1222 80.662 21.1776 81.0624 21.2036L81.1552 21.2085V21.5112H78.3817V21.2085L78.4745 21.2036C78.8684 21.1776 79.1011 21.1222 79.1727 21.0376C79.2476 20.9497 79.285 20.686 79.285 20.2466V15.0659C79.285 14.6265 79.2476 14.3644 79.1727 14.2798C79.1011 14.1919 78.8684 14.1349 78.4745 14.1089L78.3817 14.104V13.8013H80.2469ZM84.3485 21.6333C83.5673 21.6333 82.9504 21.3859 82.4979 20.8911C82.0455 20.3931 81.8192 19.716 81.8192 18.8599C81.8192 18.0037 82.0455 17.3283 82.4979 16.8335C82.9504 16.3387 83.5673 16.0913 84.3485 16.0913C85.133 16.0913 85.7499 16.3387 86.1991 16.8335C86.6516 17.3283 86.8778 18.0037 86.8778 18.8599C86.8778 19.716 86.6516 20.3931 86.1991 20.8911C85.7466 21.3859 85.1298 21.6333 84.3485 21.6333ZM84.3485 21.3306C84.7815 21.3306 85.1412 21.0978 85.4276 20.6323C85.7141 20.1636 85.8573 19.5728 85.8573 18.8599C85.8573 18.1535 85.7141 17.5659 85.4276 17.0972C85.1412 16.6252 84.7815 16.3892 84.3485 16.3892C83.9188 16.3892 83.5608 16.6252 83.2743 17.0972C82.9878 17.5659 82.8446 18.1535 82.8446 18.8599C82.8446 19.5728 82.9862 20.1636 83.2694 20.6323C83.5559 21.0978 83.9156 21.3306 84.3485 21.3306ZM89.412 21.5698L88.1083 17.4731C87.9748 17.063 87.8706 16.8042 87.7958 16.6968C87.7242 16.5861 87.6119 16.5259 87.4589 16.5161L87.3661 16.5112V16.2085H89.744V16.5112H89.6415C89.1434 16.5112 88.8944 16.5861 88.8944 16.7358C88.8944 16.8791 88.9497 17.1248 89.0604 17.4731L89.8856 20.1245L91.4237 16.2378H91.7167L93.2841 20.2222L94.2411 17.4731C94.3746 17.0858 94.4413 16.8416 94.4413 16.7407C94.4413 16.5877 94.189 16.5112 93.6844 16.5112H93.577V16.2085H95.3104V16.5112L95.203 16.5161C94.9784 16.5291 94.8156 16.7017 94.7147 17.0337C94.6854 17.1281 94.6366 17.2746 94.5682 17.4731L93.1278 21.5698H92.8593L91.2528 17.5366L89.7098 21.5698H89.412ZM100.105 21.272C99.4934 21.5129 98.9351 21.6333 98.4305 21.6333C97.6525 21.6333 97.0194 21.3713 96.5311 20.8472C96.0461 20.3231 95.8036 19.6427 95.8036 18.8062C95.8036 18.0119 96.0217 17.3608 96.4579 16.853C96.8941 16.3452 97.454 16.0913 98.1376 16.0913C98.7691 16.0913 99.2541 16.3045 99.5927 16.731C99.9344 17.1574 100.105 17.7661 100.105 18.5571V18.6499H96.868C96.868 19.4735 97.0113 20.0952 97.2977 20.5151C97.5874 20.9351 98.0155 21.145 98.5819 21.145C99.1776 21.145 99.6854 21.0229 100.105 20.7788V21.272ZM96.8876 18.3472H99.0848L99.0897 18.1323C99.0897 17.5171 99.01 17.0728 98.8505 16.7993C98.691 16.5259 98.4305 16.3892 98.0692 16.3892C97.7079 16.3892 97.4198 16.5666 97.205 16.9214C96.9934 17.2762 96.8876 17.7515 96.8876 18.3472ZM102.669 17.6538V20.2466C102.669 20.686 102.706 20.9497 102.781 21.0376C102.859 21.1255 103.094 21.1808 103.484 21.2036L103.694 21.2085V21.5112H100.804V21.2085L100.896 21.2036C101.29 21.1776 101.523 21.1222 101.595 21.0376C101.669 20.9497 101.707 20.686 101.707 20.2466V17.4731C101.707 17.0337 101.669 16.7716 101.595 16.687C101.523 16.6024 101.29 16.5454 100.896 16.5161L100.804 16.5112V16.2085H102.669V17.2046C103.108 16.4624 103.683 16.0913 104.392 16.0913C104.49 16.0913 104.599 16.1092 104.72 16.145V17.5952H104.178L104.173 17.5073C104.137 17.2046 104.104 17.0256 104.075 16.9702C104.049 16.9116 103.976 16.8823 103.855 16.8823C103.374 16.8823 102.978 17.1395 102.669 17.6538ZM110.872 14.6753H109.72C109.449 14.6753 109.213 14.6899 109.012 14.7192C108.878 14.7388 108.811 14.8592 108.811 15.0806C108.811 15.2466 108.808 15.3898 108.802 15.5103L108.797 15.6079H108.284V14.2847H114.49V15.6079H113.977L113.973 15.5103C113.963 15.3898 113.958 15.2466 113.958 15.0806C113.958 14.8592 113.893 14.7388 113.763 14.7192C113.557 14.6899 113.321 14.6753 113.055 14.6753H111.897V20.2466C111.897 20.6795 111.936 20.9432 112.015 21.0376C112.093 21.1287 112.325 21.1841 112.713 21.2036L112.923 21.2085V21.5112H109.851V21.2085L110.061 21.2036C110.449 21.1841 110.68 21.1287 110.755 21.0376C110.833 20.9432 110.872 20.6795 110.872 20.2466V14.6753ZM115.516 23.4399L117.254 21.5112L115.584 17.4927C115.408 17.063 115.278 16.7961 115.193 16.6919C115.109 16.5845 114.978 16.5259 114.803 16.5161L114.705 16.5112V16.2085H117.127V16.5112H117.024C116.582 16.5112 116.36 16.5698 116.36 16.687C116.36 16.7456 116.453 17.0142 116.639 17.4927L117.825 20.3394L119.09 17.478C119.275 17.0581 119.368 16.8058 119.368 16.7212C119.368 16.5812 119.171 16.5112 118.777 16.5112H118.645V16.2085H120.218V16.5112L120.125 16.5161C119.923 16.5291 119.751 16.7131 119.607 17.0679C119.581 17.1297 119.519 17.2697 119.422 17.4878L116.731 23.4399H115.516ZM122.268 20.9106V22.1753C122.268 22.618 122.304 22.88 122.376 22.9614C122.447 23.0461 122.683 23.103 123.084 23.1323L123.177 23.1372V23.4399H120.403V23.1372L120.496 23.1323C120.89 23.103 121.123 23.0461 121.194 22.9614C121.269 22.8768 121.307 22.6147 121.307 22.1753V17.4731C121.307 17.0337 121.269 16.7716 121.194 16.687C121.123 16.6024 120.89 16.5454 120.496 16.5161L120.403 16.5112V16.2085H122.268V17.2046C122.509 16.8335 122.784 16.5552 123.094 16.3696C123.406 16.1841 123.753 16.0913 124.134 16.0913C124.733 16.0913 125.21 16.3273 125.564 16.7993C125.919 17.2713 126.097 17.9061 126.097 18.7036C126.097 19.589 125.893 20.2987 125.486 20.8325C125.079 21.3664 124.539 21.6333 123.865 21.6333C123.556 21.6333 123.268 21.5731 123.001 21.4526C122.734 21.3322 122.49 21.1515 122.268 20.9106ZM122.268 20.5298C122.526 20.7186 122.776 20.8602 123.02 20.9546C123.265 21.049 123.504 21.0962 123.738 21.0962C124.184 21.0962 124.518 20.9188 124.739 20.564C124.96 20.2091 125.071 19.6769 125.071 18.9673C125.071 18.2153 124.964 17.6522 124.749 17.2778C124.534 16.9002 124.21 16.7114 123.777 16.7114C123.488 16.7114 123.217 16.7814 122.967 16.9214C122.716 17.0581 122.483 17.2648 122.268 17.5415V20.5298ZM131.424 21.272C130.812 21.5129 130.253 21.6333 129.749 21.6333C128.971 21.6333 128.338 21.3713 127.849 20.8472C127.364 20.3231 127.122 19.6427 127.122 18.8062C127.122 18.0119 127.34 17.3608 127.776 16.853C128.212 16.3452 128.772 16.0913 129.456 16.0913C130.087 16.0913 130.572 16.3045 130.911 16.731C131.253 17.1574 131.424 17.7661 131.424 18.5571V18.6499H128.186C128.186 19.4735 128.33 20.0952 128.616 20.5151C128.906 20.9351 129.334 21.145 129.9 21.145C130.496 21.145 131.004 21.0229 131.424 20.7788V21.272ZM128.206 18.3472H130.403L130.408 18.1323C130.408 17.5171 130.328 17.0728 130.169 16.7993C130.009 16.5259 129.749 16.3892 129.388 16.3892C129.026 16.3892 128.738 16.5666 128.523 16.9214C128.312 17.2762 128.206 17.7515 128.206 18.3472ZM132.62 21.2378V19.8901H133.162L133.172 19.9829C133.214 20.4679 133.245 20.743 133.265 20.8081C133.287 20.87 133.374 20.9497 133.523 21.0474C133.816 21.2362 134.143 21.3306 134.505 21.3306C134.798 21.3306 135.037 21.2427 135.223 21.0669C135.411 20.8879 135.506 20.6584 135.506 20.3784C135.506 20.131 135.444 19.9341 135.32 19.7876C135.193 19.6444 134.97 19.5109 134.651 19.3872L134.158 19.1968C133.627 18.9917 133.243 18.7606 133.006 18.5034C132.768 18.2495 132.649 17.9403 132.649 17.5757C132.649 17.146 132.82 16.7912 133.162 16.5112C133.507 16.2313 133.945 16.0913 134.475 16.0913C134.993 16.0913 135.529 16.1906 136.082 16.3892V17.6538H135.54V17.5659C135.52 17.2469 135.494 17.0272 135.462 16.9067C135.429 16.783 135.377 16.6919 135.306 16.6333C135.094 16.4673 134.838 16.3843 134.539 16.3843C134.256 16.3843 134.02 16.4754 133.831 16.6577C133.645 16.84 133.553 17.0695 133.553 17.3462C133.553 17.5741 133.629 17.7563 133.782 17.8931C133.932 18.033 134.235 18.1958 134.69 18.3813L135.14 18.5669C135.631 18.7687 135.974 18.9771 136.17 19.1919C136.362 19.41 136.458 19.6899 136.458 20.0317C136.458 20.5037 136.269 20.8895 135.891 21.189C135.517 21.4852 135.029 21.6333 134.427 21.6333C133.792 21.6333 133.19 21.5015 132.62 21.2378Z" fill="#979797"/>
<path d="M22.8517 21.6053L25.8589 24.5112M24.4691 17.8446C24.4691 20.7901 21.9801 23.1779 18.9099 23.1779C15.8396 23.1779 13.3507 20.7901 13.3507 17.8446C13.3507 14.899 15.8396 12.5112 18.9099 12.5112C21.9801 12.5112 24.4691 14.899 24.4691 17.8446Z" stroke="#979797" stroke-linecap="round" stroke-linejoin="round"/>
</svg>
