<svg width="320" height="35" viewBox="0 0 320 35" fill="none" xmlns="http://www.w3.org/2000/svg">
<rect x="0.5" y="0.5" width="319" height="34" rx="9.5" fill="white"/>
<rect x="0.5" y="0.5" width="319" height="34" rx="9.5" stroke="#E3E2E0"/>
<path d="M18.2949 22H12.231V21.5005L12.333 21.4951C12.6947 21.4701 12.9113 21.4092 12.9829 21.3125C13.0545 21.2122 13.0903 20.9222 13.0903 20.4424V15.603C13.0903 15.1232 13.0545 14.835 12.9829 14.7383C12.9149 14.6416 12.6982 14.5789 12.333 14.5503L12.231 14.5449V14.0508H18.064V15.4741H17.269L17.2583 15.3721C17.2476 15.1895 17.2422 15.082 17.2422 15.0498C17.2422 14.8493 17.1938 14.7204 17.0972 14.6631C17.0041 14.6058 16.791 14.5771 16.458 14.5771H14.75V17.5957H15.8564C16.2826 17.5957 16.526 17.585 16.5869 17.5635C16.6514 17.542 16.6872 17.3755 16.6943 17.064L16.7051 16.9619H17.269V18.686H16.7051L16.6943 18.5894C16.6872 18.3065 16.637 18.1471 16.5439 18.1113C16.4508 18.0755 16.2235 18.0576 15.8618 18.0576H14.7178V20.4424C14.7178 21.0368 14.7876 21.3537 14.9272 21.3931C15.0311 21.4217 15.3158 21.436 15.7812 21.436H16.4473C16.9844 21.436 17.2852 21.411 17.3496 21.3608C17.4176 21.3071 17.466 21.0565 17.4946 20.6089L17.5 20.5068H18.2949V22ZM24.0205 21.8604C23.4082 22.043 22.821 22.1343 22.2588 22.1343C21.2311 22.1343 20.4219 21.855 19.8311 21.2964C19.2438 20.7342 18.9502 19.9626 18.9502 18.9814C18.9502 18.0433 19.2295 17.3075 19.7881 16.7739C20.3467 16.2368 21.1165 15.9683 22.0977 15.9683C22.7171 15.9683 23.3509 16.0578 23.999 16.2368V17.7568H23.2363L23.231 17.6602C23.2023 17.2126 23.1486 16.9404 23.0698 16.8438C22.8693 16.5931 22.5596 16.4678 22.1406 16.4678C21.6393 16.4678 21.2633 16.6719 21.0127 17.0801C20.762 17.4883 20.6367 18.1006 20.6367 18.917C20.6367 19.7513 20.8032 20.3779 21.1362 20.7969C21.4728 21.2158 21.9741 21.4253 22.6401 21.4253C23.0519 21.4253 23.512 21.325 24.0205 21.1245V21.8604ZM27.1841 17.2144C27.4276 16.799 27.7176 16.4875 28.0542 16.2798C28.3908 16.0721 28.7739 15.9683 29.2036 15.9683C29.7336 15.9683 30.1489 16.1312 30.4497 16.457C30.7469 16.7865 30.8955 17.243 30.8955 17.8267V20.4424C30.8955 20.9222 30.9313 21.2122 31.0029 21.3125C31.0781 21.4092 31.2965 21.4701 31.6582 21.4951L31.7603 21.5005V22H28.4463V21.5005L28.543 21.4951C28.9082 21.4701 29.1266 21.4092 29.1982 21.3125C29.2699 21.2122 29.3057 20.9222 29.3057 20.4424V18.0093C29.3057 17.5903 29.2555 17.3075 29.1553 17.1606C29.0586 17.0103 28.8706 16.9351 28.5913 16.9351C28.3514 16.9351 28.1133 17.0085 27.877 17.1553C27.6442 17.2985 27.4132 17.5169 27.1841 17.8105V20.4424C27.1841 20.9222 27.2199 21.2122 27.2915 21.3125C27.3667 21.4092 27.5851 21.4701 27.9468 21.4951L28.0488 21.5005V22H24.7349V21.5005L24.8369 21.4951C25.1986 21.4701 25.4152 21.4092 25.4868 21.3125C25.5584 21.2122 25.5942 20.9222 25.5942 20.4424V15.0767C25.5942 14.5968 25.5584 14.3068 25.4868 14.2065C25.4152 14.1063 25.1986 14.0454 24.8369 14.0239L24.7349 14.0132V13.519H27.1841V17.2144ZM37.416 21.769C36.7142 22.0125 36.0303 22.1343 35.3643 22.1343C34.3581 22.1343 33.5614 21.8514 32.9741 21.2856C32.3905 20.7199 32.0986 19.9518 32.0986 18.9814C32.0986 18.0863 32.3618 17.3612 32.8882 16.8062C33.4181 16.2476 34.1074 15.9683 34.9561 15.9683C36.596 15.9683 37.416 16.9744 37.416 18.9868V19.105H33.7314C33.7314 19.8498 33.9051 20.4084 34.2524 20.7808C34.5998 21.1532 35.1208 21.3394 35.8154 21.3394C36.2881 21.3394 36.8216 21.2104 37.416 20.9526V21.769ZM33.769 18.6055H35.8477V18.4175C35.8477 17.7049 35.776 17.2018 35.6328 16.9082C35.4896 16.6146 35.2425 16.4678 34.8916 16.4678C34.5192 16.4678 34.2381 16.6468 34.0483 17.0049C33.8621 17.3594 33.769 17.8929 33.769 18.6055ZM41.2832 22.0645L39.167 17.6816C38.9163 17.1947 38.7355 16.8993 38.6245 16.7954C38.5171 16.688 38.3273 16.6253 38.0552 16.6074L37.9531 16.6021V16.1025H41.2671V16.6021L41.165 16.6074C40.7855 16.6325 40.5903 16.7041 40.5796 16.8223C40.5724 16.9046 40.687 17.1911 40.9233 17.6816L42.0942 20.1201L43.3027 17.6816C43.5426 17.2018 43.6626 16.9046 43.6626 16.79C43.6626 16.6934 43.471 16.6325 43.0879 16.6074L42.9912 16.6021V16.1025H45.1772V16.6021L45.0752 16.6074C44.7959 16.6253 44.6079 16.6808 44.5112 16.7739C44.4146 16.8634 44.2337 17.1606 43.9688 17.6655L41.772 22.0645H41.2832ZM50.833 21.769C50.1312 22.0125 49.4473 22.1343 48.7812 22.1343C47.7751 22.1343 46.9784 21.8514 46.3911 21.2856C45.8075 20.7199 45.5156 19.9518 45.5156 18.9814C45.5156 18.0863 45.7788 17.3612 46.3052 16.8062C46.8351 16.2476 47.5244 15.9683 48.373 15.9683C50.013 15.9683 50.833 16.9744 50.833 18.9868V19.105H47.1484C47.1484 19.8498 47.3221 20.4084 47.6694 20.7808C48.0168 21.1532 48.5378 21.3394 49.2324 21.3394C49.7051 21.3394 50.2386 21.2104 50.833 20.9526V21.769ZM47.186 18.6055H49.2646V18.4175C49.2646 17.7049 49.193 17.2018 49.0498 16.9082C48.9066 16.6146 48.6595 16.4678 48.3086 16.4678C47.9362 16.4678 47.6551 16.6468 47.4653 17.0049C47.2791 17.3594 47.186 17.8929 47.186 18.6055ZM53.9858 17.7837V20.4424C53.9858 20.9294 54.0252 21.2194 54.104 21.3125C54.1828 21.4056 54.4424 21.4665 54.8828 21.4951L54.9849 21.5005V22H51.5366V21.5005L51.6387 21.4951C52.0003 21.4701 52.217 21.4092 52.2886 21.3125C52.3602 21.2122 52.396 20.9222 52.396 20.4424V17.6602C52.396 17.1803 52.3602 16.8921 52.2886 16.7954C52.217 16.6951 52.0003 16.6325 51.6387 16.6074L51.5366 16.6021V16.1025H53.9858V17.2144C54.4692 16.3836 55.0959 15.9683 55.8657 15.9683C55.9481 15.9683 56.0519 15.9826 56.1772 16.0112V17.8911H55.4468L55.4414 17.7944C55.4128 17.397 55.3859 17.1732 55.3608 17.123C55.3394 17.0693 55.2516 17.0425 55.0977 17.0425C54.6393 17.0425 54.2687 17.2896 53.9858 17.7837ZM59.0776 16.1025V20.4424C59.0776 20.9222 59.1134 21.2122 59.1851 21.3125C59.2603 21.4092 59.4787 21.4701 59.8403 21.4951L59.9424 21.5005V22H56.6284V21.5005L56.7305 21.4951C57.0921 21.4701 57.3088 21.4092 57.3804 21.3125C57.452 21.2122 57.4878 20.9222 57.4878 20.4424V17.6602C57.4878 17.1803 57.452 16.8921 57.3804 16.7954C57.3088 16.6951 57.0921 16.6325 56.7305 16.6074L56.6284 16.6021V16.1025H59.0776ZM57.4878 15.1089V13.519H59.0776V15.1089H57.4878ZM63.8579 21.3179C63.575 21.59 63.285 21.7941 62.9878 21.9302C62.6942 22.0662 62.3934 22.1343 62.0854 22.1343C61.5627 22.1343 61.1294 21.9731 60.7856 21.6509C60.4419 21.325 60.27 20.915 60.27 20.4209C60.27 19.8444 60.4884 19.3843 60.9253 19.0405C61.1867 18.8328 61.4964 18.6896 61.8545 18.6108C62.2126 18.5285 62.7174 18.4873 63.3691 18.4873H63.6377V17.7729C63.6377 17.2681 63.5732 16.9243 63.4443 16.7417C63.319 16.5591 63.0845 16.4678 62.7407 16.4678C62.3218 16.4678 62.0067 16.5806 61.7954 16.8062C61.7238 16.8778 61.6772 17.1177 61.6558 17.5259L61.6504 17.6279H60.7856V16.4355C61.466 16.124 62.1768 15.9683 62.918 15.9683C63.6628 15.9683 64.2339 16.1222 64.6313 16.4302C65.0288 16.7381 65.2275 17.1803 65.2275 17.7568V20.3457C65.2275 20.804 65.2616 21.1156 65.3296 21.2803C65.394 21.4486 65.5176 21.5327 65.7002 21.5327C65.7539 21.5327 65.8166 21.522 65.8882 21.5005L65.958 22C65.6823 22.0895 65.4119 22.1343 65.147 22.1343C64.8569 22.1343 64.6045 22.0662 64.3896 21.9302C64.1748 21.7941 63.9976 21.59 63.8579 21.3179ZM63.6377 20.9258V18.9707H63.4282C62.8983 18.9707 62.499 19.0781 62.2305 19.293C61.9655 19.5042 61.833 19.8229 61.833 20.249C61.833 20.5641 61.9172 20.8166 62.0854 21.0063C62.2573 21.1925 62.4865 21.2856 62.7729 21.2856C62.9341 21.2856 63.0863 21.2552 63.2295 21.1943C63.3727 21.1335 63.5088 21.0439 63.6377 20.9258Z" fill="#453A3C"/>
</svg>
