<svg width="320" height="36" viewBox="0 0 320 36" fill="none" xmlns="http://www.w3.org/2000/svg">
<rect x="0.5" y="1.32581" width="319" height="33.573" rx="7.5" fill="white"/>
<rect x="0.5" y="1.32581" width="319" height="33.573" rx="7.5" stroke="#E3E2E0"/>
<path d="M38.2743 21.6793V20.2877H38.787L38.7919 20.3756C38.8016 20.5384 38.8065 20.6604 38.8065 20.7418C38.8065 20.999 38.9123 21.1927 39.1239 21.3229C39.469 21.5377 39.8498 21.6451 40.2665 21.6451C40.6994 21.6451 41.038 21.5231 41.2821 21.2789C41.5262 21.0315 41.6483 20.6914 41.6483 20.2584C41.6483 19.8938 41.5702 19.6041 41.4139 19.3893C41.2577 19.1744 40.9533 18.9401 40.5009 18.6862L39.9882 18.3932C38.8814 17.7682 38.328 17.0862 38.328 16.3473C38.328 15.7906 38.5266 15.33 38.9237 14.9655C39.3241 14.6009 39.8254 14.4186 40.4276 14.4186C40.688 14.4186 40.9696 14.4446 41.2723 14.4967C41.5783 14.5455 41.9055 14.622 42.2538 14.7262V16.0104H41.7118L41.7069 15.9274C41.6939 15.7516 41.6874 15.623 41.6874 15.5416C41.6874 15.2682 41.5897 15.068 41.3944 14.941C41.1991 14.8108 40.8931 14.7457 40.4764 14.7457C40.1281 14.7457 39.8449 14.8613 39.6268 15.0924C39.412 15.3203 39.3046 15.6214 39.3046 15.9957C39.3046 16.3147 39.3794 16.5784 39.5292 16.7867C39.6789 16.9951 39.9491 17.2099 40.3397 17.4313L40.8524 17.7242C41.5621 18.1279 42.0406 18.4795 42.288 18.7789C42.5354 19.0784 42.6591 19.4544 42.6591 19.9069C42.6591 20.5091 42.4344 21.0104 41.9852 21.4108C41.5393 21.8079 40.981 22.0065 40.3104 22.0065C39.9198 22.0065 39.5536 21.9788 39.2118 21.9235C38.8733 21.8681 38.5608 21.7867 38.2743 21.6793ZM47.8983 21.5865C47.2863 21.8274 46.7281 21.9479 46.2235 21.9479C45.4455 21.9479 44.8124 21.6858 44.3241 21.1617C43.8391 20.6377 43.5966 19.9573 43.5966 19.1207C43.5966 18.3265 43.8147 17.6754 44.2509 17.1676C44.6871 16.6598 45.2469 16.4059 45.9305 16.4059C46.5621 16.4059 47.0471 16.6191 47.3856 17.0455C47.7274 17.472 47.8983 18.0807 47.8983 18.8717V18.9645H44.661C44.661 19.788 44.8042 20.4098 45.0907 20.8297C45.3804 21.2496 45.8085 21.4596 46.3749 21.4596C46.9706 21.4596 47.4784 21.3375 47.8983 21.0934V21.5865ZM44.6805 18.6617H46.8778L46.8827 18.4469C46.8827 17.8317 46.8029 17.3873 46.6434 17.1139C46.4839 16.8405 46.2235 16.7037 45.8622 16.7037C45.5009 16.7037 45.2128 16.8811 44.9979 17.236C44.7863 17.5908 44.6805 18.066 44.6805 18.6617ZM52.1757 21.0983C51.6027 21.6647 51.0363 21.9479 50.4764 21.9479C50.0272 21.9479 49.6529 21.8063 49.3534 21.5231C49.0539 21.2366 48.9042 20.8785 48.9042 20.4489C48.9042 19.9476 49.0995 19.5406 49.4901 19.2281C49.9361 18.8701 50.6913 18.691 51.7557 18.691H51.9559V18.0319C51.9559 17.1953 51.6385 16.777 51.0038 16.777C50.7076 16.777 50.4455 16.8681 50.2177 17.0504C50.0842 17.1611 49.9996 17.3873 49.9637 17.7291L49.9589 17.8219H49.3046V16.8502C49.9816 16.554 50.6099 16.4059 51.1893 16.4059C52.3417 16.4059 52.9178 16.9349 52.9178 17.9928V20.3561C52.9178 20.7793 52.9537 21.0771 53.0253 21.2496C53.1001 21.4222 53.2287 21.5084 53.411 21.5084C53.4761 21.5084 53.5624 21.4938 53.6698 21.4645L53.6991 21.8258C53.468 21.9072 53.2613 21.9479 53.079 21.9479C52.6037 21.9479 52.3026 21.6647 52.1757 21.0983ZM51.9559 20.9908V18.9938H51.7313C51.1649 18.9938 50.7222 19.111 50.4032 19.3453C50.0842 19.5797 49.9247 19.902 49.9247 20.3121C49.9247 20.6181 50.024 20.872 50.2225 21.0739C50.4211 21.2757 50.6685 21.3766 50.9647 21.3766C51.2447 21.3766 51.5751 21.248 51.9559 20.9908ZM55.8915 17.9684V20.5612C55.8915 21.0006 55.9289 21.2643 56.0038 21.3522C56.0819 21.4401 56.3163 21.4954 56.7069 21.5182L56.9169 21.5231V21.8258H54.0262V21.5231L54.119 21.5182C54.5129 21.4921 54.7456 21.4368 54.8173 21.3522C54.8921 21.2643 54.9296 21.0006 54.9296 20.5612V17.7877C54.9296 17.3483 54.8921 17.0862 54.8173 17.0016C54.7456 16.917 54.5129 16.86 54.119 16.8307L54.0262 16.8258V16.5231H55.8915V17.5192C56.3309 16.777 56.9055 16.4059 57.6151 16.4059C57.7128 16.4059 57.8218 16.4238 57.9423 16.4596V17.9098H57.4003L57.3954 17.8219C57.3596 17.5192 57.327 17.3401 57.2977 17.2848C57.2717 17.2262 57.1984 17.1969 57.078 17.1969C56.5962 17.1969 56.2007 17.4541 55.8915 17.9684ZM62.83 21.6451C62.3221 21.847 61.8257 21.9479 61.3407 21.9479C60.566 21.9479 59.9377 21.6891 59.4559 21.1715C58.9742 20.6539 58.7333 19.9801 58.7333 19.15C58.7333 18.3199 58.9644 17.6559 59.4266 17.1578C59.8921 16.6565 60.5106 16.4059 61.2821 16.4059C61.676 16.4059 62.1919 16.4856 62.83 16.6451V17.9098H62.2294L62.2245 17.8219C62.2245 17.0927 61.9038 16.7281 61.2626 16.7281C60.7971 16.7281 60.426 16.9397 60.1493 17.3629C59.8759 17.7861 59.7391 18.359 59.7391 19.0817C59.7391 19.8206 59.9019 20.4033 60.2274 20.8297C60.5529 21.2561 60.9956 21.4694 61.5555 21.4694C62.0373 21.4694 62.4621 21.388 62.83 21.2252V21.6451ZM65.3837 17.5192C65.6278 17.1481 65.9094 16.8698 66.2284 16.6842C66.5474 16.4987 66.9038 16.4059 67.2977 16.4059C67.7535 16.4059 68.1115 16.5556 68.3719 16.8551C68.6291 17.1546 68.7577 17.5664 68.7577 18.0905V20.5612C68.7805 21.0462 68.8179 21.3196 68.87 21.3815C68.9221 21.4433 69.1565 21.4889 69.5731 21.5182L69.661 21.5231V21.8258H66.8925V21.5231L66.9803 21.5182C67.397 21.4889 67.6314 21.4433 67.6835 21.3815C67.7356 21.3196 67.773 21.0462 67.7958 20.5612V18.2418C67.7958 17.7861 67.7356 17.4703 67.6151 17.2946C67.4979 17.1155 67.2863 17.026 66.9803 17.026C66.7655 17.026 66.5246 17.0944 66.2577 17.2311C65.9908 17.3645 65.6994 17.568 65.3837 17.8414V20.5612C65.3837 21.0039 65.4195 21.2675 65.4911 21.3522C65.5627 21.4368 65.7987 21.4921 66.1991 21.5182L66.2919 21.5231V21.8258H63.5184V21.5231L63.6112 21.5182C64.0051 21.4921 64.2378 21.4368 64.3094 21.3522C64.3843 21.2643 64.4218 21.0006 64.4218 20.5612V15.3805C64.4218 14.941 64.3843 14.679 64.3094 14.5944C64.2378 14.5065 64.0051 14.4495 63.6112 14.4235L63.5184 14.4186V14.1158H65.3837V17.5192ZM74.8514 18.3199V20.5612C74.8514 20.9453 74.8856 21.1976 74.954 21.318C75.0256 21.4352 75.1753 21.4938 75.4032 21.4938C75.4162 21.4938 75.5432 21.5019 75.7841 21.5182L75.8768 21.5231V21.8258H72.9227V21.5231L73.0155 21.5182C73.4094 21.4921 73.6421 21.4368 73.7137 21.3522C73.7886 21.2643 73.826 21.0006 73.826 20.5612V15.8639C73.826 15.4212 73.7886 15.1575 73.7137 15.0729C73.6421 14.9882 73.4094 14.9329 73.0155 14.9069L72.9227 14.8971V14.5992H77.8007V15.8639H77.2587L77.2538 15.7711C77.2277 15.3219 77.1936 15.0794 77.1512 15.0436C77.1089 15.0078 76.8485 14.9899 76.37 14.9899H74.8514V17.9244H76.1747C76.4677 17.9244 76.6467 17.9098 76.7118 17.8805C76.7769 17.8512 76.8176 17.6966 76.8339 17.4166L76.8387 17.3287H77.2294V18.9254H76.8387L76.8339 18.8326C76.8176 18.5852 76.7769 18.4388 76.7118 18.3932C76.6467 18.3444 76.4677 18.3199 76.1747 18.3199H74.8514ZM80.2469 14.1158V20.5612C80.2469 21.0039 80.2828 21.2675 80.3544 21.3522C80.426 21.4368 80.662 21.4921 81.0624 21.5182L81.1552 21.5231V21.8258H78.3817V21.5231L78.4745 21.5182C78.8684 21.4921 79.1011 21.4368 79.1727 21.3522C79.2476 21.2643 79.285 21.0006 79.285 20.5612V15.3805C79.285 14.941 79.2476 14.679 79.1727 14.5944C79.1011 14.5065 78.8684 14.4495 78.4745 14.4235L78.3817 14.4186V14.1158H80.2469ZM84.3485 21.9479C83.5673 21.9479 82.9504 21.7005 82.4979 21.2057C82.0455 20.7076 81.8192 20.0306 81.8192 19.1744C81.8192 18.3183 82.0455 17.6429 82.4979 17.1481C82.9504 16.6533 83.5673 16.4059 84.3485 16.4059C85.133 16.4059 85.7499 16.6533 86.1991 17.1481C86.6516 17.6429 86.8778 18.3183 86.8778 19.1744C86.8778 20.0306 86.6516 20.7076 86.1991 21.2057C85.7466 21.7005 85.1298 21.9479 84.3485 21.9479ZM84.3485 21.6451C84.7815 21.6451 85.1412 21.4124 85.4276 20.9469C85.7141 20.4781 85.8573 19.8873 85.8573 19.1744C85.8573 18.4681 85.7141 17.8805 85.4276 17.4117C85.1412 16.9397 84.7815 16.7037 84.3485 16.7037C83.9188 16.7037 83.5608 16.9397 83.2743 17.4117C82.9878 17.8805 82.8446 18.4681 82.8446 19.1744C82.8446 19.8873 82.9862 20.4781 83.2694 20.9469C83.5559 21.4124 83.9156 21.6451 84.3485 21.6451ZM89.412 21.8844L88.1083 17.7877C87.9748 17.3776 87.8706 17.1188 87.7958 17.0114C87.7242 16.9007 87.6119 16.8405 87.4589 16.8307L87.3661 16.8258V16.5231H89.744V16.8258H89.6415C89.1434 16.8258 88.8944 16.9007 88.8944 17.0504C88.8944 17.1936 88.9497 17.4394 89.0604 17.7877L89.8856 20.4391L91.4237 16.5524H91.7167L93.2841 20.5367L94.2411 17.7877C94.3746 17.4003 94.4413 17.1562 94.4413 17.0553C94.4413 16.9023 94.189 16.8258 93.6844 16.8258H93.577V16.5231H95.3104V16.8258L95.203 16.8307C94.9784 16.8437 94.8156 17.0162 94.7147 17.3483C94.6854 17.4427 94.6366 17.5892 94.5682 17.7877L93.1278 21.8844H92.8593L91.2528 17.8512L89.7098 21.8844H89.412ZM100.105 21.5865C99.4934 21.8274 98.9351 21.9479 98.4305 21.9479C97.6525 21.9479 97.0194 21.6858 96.5311 21.1617C96.0461 20.6377 95.8036 19.9573 95.8036 19.1207C95.8036 18.3265 96.0217 17.6754 96.4579 17.1676C96.8941 16.6598 97.454 16.4059 98.1376 16.4059C98.7691 16.4059 99.2541 16.6191 99.5927 17.0455C99.9344 17.472 100.105 18.0807 100.105 18.8717V18.9645H96.868C96.868 19.788 97.0113 20.4098 97.2977 20.8297C97.5874 21.2496 98.0155 21.4596 98.5819 21.4596C99.1776 21.4596 99.6854 21.3375 100.105 21.0934V21.5865ZM96.8876 18.6617H99.0848L99.0897 18.4469C99.0897 17.8317 99.01 17.3873 98.8505 17.1139C98.691 16.8405 98.4305 16.7037 98.0692 16.7037C97.7079 16.7037 97.4198 16.8811 97.205 17.236C96.9934 17.5908 96.8876 18.066 96.8876 18.6617ZM102.669 17.9684V20.5612C102.669 21.0006 102.706 21.2643 102.781 21.3522C102.859 21.4401 103.094 21.4954 103.484 21.5182L103.694 21.5231V21.8258H100.804V21.5231L100.896 21.5182C101.29 21.4921 101.523 21.4368 101.595 21.3522C101.669 21.2643 101.707 21.0006 101.707 20.5612V17.7877C101.707 17.3483 101.669 17.0862 101.595 17.0016C101.523 16.917 101.29 16.86 100.896 16.8307L100.804 16.8258V16.5231H102.669V17.5192C103.108 16.777 103.683 16.4059 104.392 16.4059C104.49 16.4059 104.599 16.4238 104.72 16.4596V17.9098H104.178L104.173 17.8219C104.137 17.5192 104.104 17.3401 104.075 17.2848C104.049 17.2262 103.976 17.1969 103.855 17.1969C103.374 17.1969 102.978 17.4541 102.669 17.9684ZM110.872 14.9899H109.72C109.449 14.9899 109.213 15.0045 109.012 15.0338C108.878 15.0533 108.811 15.1738 108.811 15.3951C108.811 15.5612 108.808 15.7044 108.802 15.8248L108.797 15.9225H108.284V14.5992H114.49V15.9225H113.977L113.973 15.8248C113.963 15.7044 113.958 15.5612 113.958 15.3951C113.958 15.1738 113.893 15.0533 113.763 15.0338C113.557 15.0045 113.321 14.9899 113.055 14.9899H111.897V20.5612C111.897 20.9941 111.936 21.2578 112.015 21.3522C112.093 21.4433 112.325 21.4987 112.713 21.5182L112.923 21.5231V21.8258H109.851V21.5231L110.061 21.5182C110.449 21.4987 110.68 21.4433 110.755 21.3522C110.833 21.2578 110.872 20.9941 110.872 20.5612V14.9899ZM115.516 23.7545L117.254 21.8258L115.584 17.8073C115.408 17.3776 115.278 17.1106 115.193 17.0065C115.109 16.899 114.978 16.8405 114.803 16.8307L114.705 16.8258V16.5231H117.127V16.8258H117.024C116.582 16.8258 116.36 16.8844 116.36 17.0016C116.36 17.0602 116.453 17.3287 116.639 17.8073L117.825 20.6539L119.09 17.7926C119.275 17.3727 119.368 17.1204 119.368 17.0358C119.368 16.8958 119.171 16.8258 118.777 16.8258H118.645V16.5231H120.218V16.8258L120.125 16.8307C119.923 16.8437 119.751 17.0276 119.607 17.3824C119.581 17.4443 119.519 17.5843 119.422 17.8024L116.731 23.7545H115.516ZM122.268 21.2252V22.4899C122.268 22.9326 122.304 23.1946 122.376 23.276C122.447 23.3606 122.683 23.4176 123.084 23.4469L123.177 23.4518V23.7545H120.403V23.4518L120.496 23.4469C120.89 23.4176 121.123 23.3606 121.194 23.276C121.269 23.1914 121.307 22.9293 121.307 22.4899V17.7877C121.307 17.3483 121.269 17.0862 121.194 17.0016C121.123 16.917 120.89 16.86 120.496 16.8307L120.403 16.8258V16.5231H122.268V17.5192C122.509 17.1481 122.784 16.8698 123.094 16.6842C123.406 16.4987 123.753 16.4059 124.134 16.4059C124.733 16.4059 125.21 16.6419 125.564 17.1139C125.919 17.5859 126.097 18.2207 126.097 19.0182C126.097 19.9036 125.893 20.6132 125.486 21.1471C125.079 21.6809 124.539 21.9479 123.865 21.9479C123.556 21.9479 123.268 21.8877 123.001 21.7672C122.734 21.6468 122.49 21.4661 122.268 21.2252ZM122.268 20.8444C122.526 21.0332 122.776 21.1748 123.02 21.2692C123.265 21.3636 123.504 21.4108 123.738 21.4108C124.184 21.4108 124.518 21.2334 124.739 20.8785C124.96 20.5237 125.071 19.9915 125.071 19.2819C125.071 18.5299 124.964 17.9668 124.749 17.5924C124.534 17.2148 124.21 17.026 123.777 17.026C123.488 17.026 123.217 17.096 122.967 17.236C122.716 17.3727 122.483 17.5794 122.268 17.8561V20.8444ZM131.424 21.5865C130.812 21.8274 130.253 21.9479 129.749 21.9479C128.971 21.9479 128.338 21.6858 127.849 21.1617C127.364 20.6377 127.122 19.9573 127.122 19.1207C127.122 18.3265 127.34 17.6754 127.776 17.1676C128.212 16.6598 128.772 16.4059 129.456 16.4059C130.087 16.4059 130.572 16.6191 130.911 17.0455C131.253 17.472 131.424 18.0807 131.424 18.8717V18.9645H128.186C128.186 19.788 128.33 20.4098 128.616 20.8297C128.906 21.2496 129.334 21.4596 129.9 21.4596C130.496 21.4596 131.004 21.3375 131.424 21.0934V21.5865ZM128.206 18.6617H130.403L130.408 18.4469C130.408 17.8317 130.328 17.3873 130.169 17.1139C130.009 16.8405 129.749 16.7037 129.388 16.7037C129.026 16.7037 128.738 16.8811 128.523 17.236C128.312 17.5908 128.206 18.066 128.206 18.6617ZM132.62 21.5524V20.2047H133.162L133.172 20.2975C133.214 20.7825 133.245 21.0576 133.265 21.1227C133.287 21.1845 133.374 21.2643 133.523 21.3619C133.816 21.5507 134.143 21.6451 134.505 21.6451C134.798 21.6451 135.037 21.5573 135.223 21.3815C135.411 21.2024 135.506 20.9729 135.506 20.693C135.506 20.4456 135.444 20.2487 135.32 20.1022C135.193 19.9589 134.97 19.8255 134.651 19.7018L134.158 19.5114C133.627 19.3063 133.243 19.0752 133.006 18.818C132.768 18.5641 132.649 18.2548 132.649 17.8903C132.649 17.4606 132.82 17.1058 133.162 16.8258C133.507 16.5459 133.945 16.4059 134.475 16.4059C134.993 16.4059 135.529 16.5052 136.082 16.7037V17.9684H135.54V17.8805C135.52 17.5615 135.494 17.3418 135.462 17.2213C135.429 17.0976 135.377 17.0065 135.306 16.9479C135.094 16.7819 134.838 16.6989 134.539 16.6989C134.256 16.6989 134.02 16.79 133.831 16.9723C133.645 17.1546 133.553 17.3841 133.553 17.6608C133.553 17.8886 133.629 18.0709 133.782 18.2076C133.932 18.3476 134.235 18.5104 134.69 18.6959L135.14 18.8815C135.631 19.0833 135.974 19.2916 136.17 19.5065C136.362 19.7246 136.458 20.0045 136.458 20.3463C136.458 20.8183 136.269 21.2041 135.891 21.5035C135.517 21.7998 135.029 21.9479 134.427 21.9479C133.792 21.9479 133.19 21.816 132.62 21.5524Z" fill="#979797"/>
<path d="M22.8517 21.9199L25.8589 24.8258M24.4691 18.1591C24.4691 21.1047 21.9801 23.4925 18.9099 23.4925C15.8396 23.4925 13.3507 21.1047 13.3507 18.1591C13.3507 15.2136 15.8396 12.8258 18.9099 12.8258C21.9801 12.8258 24.4691 15.2136 24.4691 18.1591Z" stroke="#979797" stroke-linecap="round" stroke-linejoin="round"/>
</svg>
