<svg width="45" height="13" viewBox="0 0 45 13" fill="none" xmlns="http://www.w3.org/2000/svg">
<path d="M5.25 12H0.335938V11.2734L0.484375 11.2656C1.01042 11.2292 1.32552 11.1406 1.42969 11C1.53385 10.8542 1.58594 10.4323 1.58594 9.73438V2.69531C1.58594 1.9974 1.53385 1.57812 1.42969 1.4375C1.33073 1.29688 1.01562 1.20573 0.484375 1.16406L0.335938 1.15625V0.4375H5.25V1.15625L5.10938 1.16406C4.57292 1.20573 4.2526 1.29688 4.14844 1.4375C4.04948 1.57812 4 1.9974 4 2.69531V9.73438C4 10.4323 4.05208 10.8542 4.15625 11C4.26042 11.1406 4.57812 11.2292 5.10938 11.2656L5.25 11.2734V12ZM11.4062 11.9297C10.9219 12.1068 10.4479 12.1953 9.98438 12.1953C9.02083 12.1953 8.29688 11.9583 7.8125 11.4844C7.33333 11.0052 7.09375 10.2891 7.09375 9.33594V4.19531H6.03125V3.42188H7.09375V1.97656L9.40625 1.57031V3.42188H11.3047V4.19531H9.40625V9.39062C9.40625 10.1562 9.48177 10.6615 9.63281 10.9062C9.78385 11.151 10.0964 11.2734 10.5703 11.2734C10.8307 11.2734 11.1094 11.2135 11.4062 11.0938V11.9297ZM20.0312 11.6641C19.0104 12.0182 18.0156 12.1953 17.0469 12.1953C15.5833 12.1953 14.4245 11.7839 13.5703 10.9609C12.7214 10.138 12.2969 9.02083 12.2969 7.60938C12.2969 6.30729 12.6797 5.2526 13.4453 4.44531C14.2161 3.63281 15.2188 3.22656 16.4531 3.22656C18.8385 3.22656 20.0312 4.6901 20.0312 7.61719V7.78906H14.6719C14.6719 8.8724 14.9245 9.6849 15.4297 10.2266C15.9349 10.7682 16.6927 11.0391 17.7031 11.0391C18.3906 11.0391 19.1667 10.8516 20.0312 10.4766V11.6641ZM14.7266 7.0625H17.75V6.78906C17.75 5.7526 17.6458 5.02083 17.4375 4.59375C17.2292 4.16667 16.8698 3.95312 16.3594 3.95312C15.8177 3.95312 15.4089 4.21354 15.1328 4.73438C14.862 5.25 14.7266 6.02604 14.7266 7.0625ZM24.5234 5.03906C24.9453 4.4349 25.401 3.98177 25.8906 3.67969C26.3854 3.3776 26.9141 3.22656 27.4766 3.22656C28.1016 3.22656 28.5964 3.3776 28.9609 3.67969C29.3307 3.98177 29.5703 4.4349 29.6797 5.03906C30.1901 4.4349 30.7031 3.98177 31.2188 3.67969C31.7344 3.3776 32.25 3.22656 32.7656 3.22656C34.276 3.22656 35.0312 4.04688 35.0312 5.6875V9.73438C35.0312 10.4323 35.0833 10.8542 35.1875 11C35.2917 11.1406 35.6094 11.2292 36.1406 11.2656L36.2812 11.2734V12H31.75V11.2734L31.8984 11.2656C32.3359 11.2396 32.5964 11.1536 32.6797 11.0078C32.7682 10.8568 32.8125 10.4323 32.8125 9.73438V6.21094C32.8125 5.16406 32.4792 4.64062 31.8125 4.64062C31.4375 4.64062 31.0807 4.7526 30.7422 4.97656C30.4036 5.20052 30.0833 5.53906 29.7812 5.99219V9.73438C29.7812 10.4271 29.8255 10.849 29.9141 11C30.0026 11.151 30.263 11.2396 30.6953 11.2656L30.8359 11.2734V12H26.5V11.2734L26.6484 11.2656C27.0859 11.2396 27.3464 11.1536 27.4297 11.0078C27.5182 10.862 27.5625 10.4375 27.5625 9.73438V6.21094C27.5625 5.6849 27.4792 5.29167 27.3125 5.03125C27.1458 4.76562 26.8932 4.63281 26.5547 4.63281C26.1693 4.63281 25.8073 4.74479 25.4688 4.96875C25.1302 5.1875 24.8151 5.52083 24.5234 5.96875V9.73438C24.5234 10.4271 24.5677 10.849 24.6562 11C24.75 11.151 25.0104 11.2396 25.4375 11.2656L25.5859 11.2734V12H21.0547V11.2734L21.2031 11.2656C21.7292 11.2292 22.0443 11.1406 22.1484 11C22.2526 10.8542 22.3047 10.4323 22.3047 9.73438V5.6875C22.3047 4.98958 22.2526 4.57031 22.1484 4.42969C22.0443 4.28385 21.7292 4.19271 21.2031 4.15625L21.0547 4.14844V3.42188H24.5234V5.03906ZM37.1484 11.6094V9.39844H38.2109L38.2188 9.53906C38.25 10.1849 38.349 10.599 38.5156 10.7812C38.9323 11.2396 39.5495 11.4688 40.3672 11.4688C40.763 11.4688 41.0964 11.3411 41.3672 11.0859C41.6432 10.8307 41.7812 10.5156 41.7812 10.1406C41.7812 9.5625 41.2943 9.08073 40.3203 8.69531L39.6094 8.41406C37.9688 7.76302 37.1484 6.88542 37.1484 5.78125C37.1484 5 37.4635 4.38021 38.0938 3.92188C38.7292 3.45833 39.5859 3.22656 40.6641 3.22656C41.5182 3.22656 42.4089 3.36198 43.3359 3.63281V5.6875H42.2734L42.2656 5.53906L42.25 5.16406C42.25 4.35677 41.7786 3.95312 40.8359 3.95312C40.4245 3.95312 40.0755 4.08594 39.7891 4.35156C39.5026 4.61719 39.3594 4.94271 39.3594 5.32812C39.3594 5.65104 39.4635 5.90625 39.6719 6.09375C39.8854 6.27604 40.3203 6.49219 40.9766 6.74219L41.6797 7.01562C43.2786 7.63021 44.0781 8.45312 44.0781 9.48438C44.0781 10.2708 43.7396 10.9193 43.0625 11.4297C42.3854 11.9401 41.526 12.1953 40.4844 12.1953C39.1927 12.1953 38.0807 12 37.1484 11.6094Z" fill="#453A3C"/>
</svg>
