<svg width="100" height="12" viewBox="0 0 100 12" fill="none" xmlns="http://www.w3.org/2000/svg">
<path d="M0.0859375 1.37842V1.05078H3.21729V1.37842L3.12061 1.38916C2.68018 1.41781 2.42057 1.47868 2.3418 1.57178C2.26302 1.6613 2.22363 1.95133 2.22363 2.44189V5.8418C2.22363 6.66536 2.24512 7.20247 2.28809 7.45312C2.33105 7.70378 2.43848 7.94189 2.61035 8.16748C2.95768 8.61865 3.47689 8.84424 4.16797 8.84424C4.81608 8.84424 5.33529 8.6473 5.72559 8.25342C5.94401 8.03141 6.08545 7.78613 6.1499 7.51758C6.21794 7.24902 6.25195 6.76921 6.25195 6.07812V2.44189C6.25195 1.95492 6.21077 1.66488 6.12842 1.57178C6.04964 1.47868 5.79183 1.41781 5.35498 1.38916L5.2583 1.37842V1.05078H7.8042V1.37842L7.70215 1.38916C7.26172 1.41781 7.00212 1.47868 6.92334 1.57178C6.84814 1.6613 6.81055 1.95133 6.81055 2.44189V5.77197C6.81055 6.5096 6.76937 7.05029 6.68701 7.39404C6.60465 7.73779 6.43994 8.05827 6.19287 8.35547C5.72738 8.91764 5.00765 9.19873 4.03369 9.19873C2.06429 9.19873 1.07959 8.14062 1.07959 6.02441V2.44189C1.07959 1.95492 1.03841 1.66488 0.956055 1.57178C0.877279 1.47868 0.621257 1.41781 0.187988 1.38916L0.0859375 1.37842ZM10.1567 8.33936V9.73047C10.1567 10.2174 10.1961 10.5057 10.2749 10.5952C10.3537 10.6883 10.6133 10.751 11.0537 10.7832L11.1558 10.7886V11.1216H8.10498V10.7886L8.20703 10.7832C8.6403 10.751 8.89632 10.6883 8.9751 10.5952C9.05745 10.5021 9.09863 10.2139 9.09863 9.73047V4.55811C9.09863 4.07471 9.05745 3.78646 8.9751 3.69336C8.89632 3.60026 8.6403 3.5376 8.20703 3.50537L8.10498 3.5V3.16699H10.1567V4.2627C10.4217 3.85449 10.7243 3.54834 11.0645 3.34424C11.4082 3.14014 11.7896 3.03809 12.2085 3.03809C12.8674 3.03809 13.3919 3.29769 13.7822 3.81689C14.1725 4.3361 14.3677 5.03434 14.3677 5.91162C14.3677 6.88558 14.1439 7.66618 13.6963 8.25342C13.2487 8.84066 12.6543 9.13428 11.9131 9.13428C11.5729 9.13428 11.256 9.06803 10.9624 8.93555C10.6688 8.80306 10.4002 8.60433 10.1567 8.33936ZM10.1567 7.92041C10.4396 8.12809 10.7153 8.28385 10.9839 8.3877C11.2524 8.49154 11.5156 8.54346 11.7734 8.54346C12.264 8.54346 12.631 8.34831 12.8745 7.95801C13.118 7.56771 13.2397 6.98226 13.2397 6.20166C13.2397 5.37451 13.1216 4.75505 12.8853 4.34326C12.6489 3.9279 12.2926 3.72021 11.8164 3.72021C11.4977 3.72021 11.2005 3.7972 10.9248 3.95117C10.6491 4.10156 10.3931 4.32894 10.1567 4.6333V7.92041ZM17.2144 0.519043V7.60889C17.2144 8.09587 17.2537 8.3859 17.3325 8.479C17.4113 8.5721 17.6709 8.63298 18.1113 8.66162L18.2134 8.66699V9H15.1626V8.66699L15.2646 8.66162C15.6979 8.63298 15.9539 8.5721 16.0327 8.479C16.1151 8.38232 16.1562 8.09229 16.1562 7.60889V1.91016C16.1562 1.42676 16.1151 1.13851 16.0327 1.04541C15.9539 0.94873 15.6979 0.886068 15.2646 0.857422L15.1626 0.852051V0.519043H17.2144ZM21.7261 9.13428C20.8667 9.13428 20.1882 8.86214 19.6904 8.31787C19.1927 7.77002 18.9438 7.02523 18.9438 6.0835C18.9438 5.14176 19.1927 4.39876 19.6904 3.85449C20.1882 3.31022 20.8667 3.03809 21.7261 3.03809C22.589 3.03809 23.2676 3.31022 23.7617 3.85449C24.2594 4.39876 24.5083 5.14176 24.5083 6.0835C24.5083 7.02523 24.2594 7.77002 23.7617 8.31787C23.264 8.86214 22.5854 9.13428 21.7261 9.13428ZM21.7261 8.80127C22.2023 8.80127 22.598 8.54525 22.9131 8.0332C23.2282 7.51758 23.3857 6.86768 23.3857 6.0835C23.3857 5.30648 23.2282 4.66016 22.9131 4.14453C22.598 3.62533 22.2023 3.36572 21.7261 3.36572C21.2534 3.36572 20.8595 3.62533 20.5444 4.14453C20.2293 4.66016 20.0718 5.30648 20.0718 6.0835C20.0718 6.86768 20.2275 7.51758 20.5391 8.0332C20.8542 8.54525 21.2498 8.80127 21.7261 8.80127ZM29.1758 8.19971C28.5456 8.82275 27.9225 9.13428 27.3066 9.13428C26.8125 9.13428 26.4007 8.97852 26.0713 8.66699C25.7419 8.35189 25.5771 7.95801 25.5771 7.48535C25.5771 6.93392 25.792 6.48633 26.2217 6.14258C26.7122 5.7487 27.543 5.55176 28.7139 5.55176H28.9341V4.82666C28.9341 3.90641 28.585 3.44629 27.8867 3.44629C27.5609 3.44629 27.2726 3.54655 27.022 3.74707C26.8752 3.86882 26.7821 4.11768 26.7427 4.49365L26.7373 4.5957H26.0176V3.52686C26.7624 3.20101 27.4535 3.03809 28.0908 3.03809C29.3584 3.03809 29.9922 3.61995 29.9922 4.78369V7.3833C29.9922 7.8488 30.0316 8.17643 30.1104 8.36621C30.1927 8.55599 30.3341 8.65088 30.5347 8.65088C30.6063 8.65088 30.7012 8.63477 30.8193 8.60254L30.8516 9C30.5973 9.08952 30.37 9.13428 30.1694 9.13428C29.6466 9.13428 29.3154 8.82275 29.1758 8.19971ZM28.9341 8.08154V5.88477H28.687C28.064 5.88477 27.577 6.01367 27.2261 6.27148C26.8752 6.5293 26.6997 6.88379 26.6997 7.33496C26.6997 7.67155 26.8089 7.95085 27.0273 8.17285C27.2458 8.39486 27.5179 8.50586 27.8438 8.50586C28.1517 8.50586 28.5151 8.36442 28.9341 8.08154ZM35.8145 9V7.9043C35.5566 8.3125 35.2559 8.62044 34.9121 8.82812C34.5719 9.03223 34.1906 9.13428 33.7681 9.13428C33.1092 9.13428 32.5846 8.87467 32.1943 8.35547C31.804 7.83268 31.6089 7.13265 31.6089 6.25537C31.6089 5.28141 31.8327 4.5026 32.2803 3.91895C32.7279 3.33171 33.3223 3.03809 34.0635 3.03809C34.4036 3.03809 34.7188 3.10433 35.0088 3.23682C35.3024 3.3693 35.571 3.56803 35.8145 3.83301V1.91016C35.8145 1.4196 35.7751 1.12956 35.6963 1.04004C35.6211 0.94694 35.3633 0.886068 34.9229 0.857422L34.8208 0.852051V0.519043H36.8779V7.60889C36.8779 8.09587 36.9155 8.3859 36.9907 8.479C37.0695 8.5721 37.3291 8.63298 37.7695 8.66162L37.8716 8.66699V9H35.8145ZM35.8145 4.24658C35.5387 4.0389 35.2666 3.88493 34.998 3.78467C34.7295 3.68083 34.4645 3.62891 34.2031 3.62891C33.7126 3.62891 33.3438 3.82406 33.0967 4.21436C32.8532 4.60107 32.7314 5.18473 32.7314 5.96533C32.7314 6.79248 32.8496 7.41374 33.0859 7.8291C33.3258 8.24089 33.6839 8.44678 34.1602 8.44678C34.4824 8.44678 34.7814 8.37158 35.0571 8.22119C35.3328 8.06722 35.5853 7.83805 35.8145 7.53369V4.24658ZM43.6724 3.16699V7.60889C43.6724 8.09587 43.7118 8.3859 43.7905 8.479C43.8693 8.5721 44.1289 8.63298 44.5693 8.66162L44.6714 8.66699V9H41.6206V8.66699L41.7227 8.66162C42.1559 8.63298 42.4119 8.5721 42.4907 8.479C42.5731 8.38232 42.6143 8.09229 42.6143 7.60889V4.55811C42.6143 4.07471 42.5731 3.78646 42.4907 3.69336C42.4119 3.60026 42.1559 3.5376 41.7227 3.50537L41.6206 3.5V3.16699H43.6724ZM42.6143 2.10889V1.05078H43.6724V2.10889H42.6143ZM48.6782 8.96777C48.4097 9.07878 48.1536 9.13428 47.9102 9.13428C47.2907 9.13428 46.8377 8.97852 46.5513 8.66699C46.2684 8.35547 46.127 7.85954 46.127 7.1792V3.60205H45.2676V3.16699H46.127V2.10889L47.1904 1.8457V3.16699H48.8125V3.60205H47.1904V7.31885C47.1904 7.82015 47.2567 8.17643 47.3892 8.3877C47.5216 8.59896 47.7472 8.70459 48.0659 8.70459C48.2342 8.70459 48.4383 8.64909 48.6782 8.53809V8.96777ZM54.377 8.73682C53.7038 9.00179 53.0897 9.13428 52.5347 9.13428C51.6789 9.13428 50.9824 8.84603 50.4453 8.26953C49.9118 7.69303 49.645 6.94466 49.645 6.02441C49.645 5.15072 49.8849 4.43457 50.3647 3.87598C50.8446 3.31738 51.4604 3.03809 52.2124 3.03809C52.9071 3.03809 53.4406 3.27262 53.813 3.7417C54.189 4.21077 54.377 4.88037 54.377 5.75049V5.85254H50.8159C50.8159 6.75846 50.9735 7.44238 51.2886 7.9043C51.6073 8.36621 52.0781 8.59717 52.7012 8.59717C53.3564 8.59717 53.915 8.46289 54.377 8.19434V8.73682ZM50.8374 5.51953H53.2544L53.2598 5.2832C53.2598 4.60645 53.172 4.11768 52.9966 3.81689C52.8211 3.51611 52.5347 3.36572 52.1372 3.36572C51.7397 3.36572 51.4229 3.56087 51.1865 3.95117C50.9538 4.34147 50.8374 4.86426 50.8374 5.51953ZM57.1968 4.2627C57.5047 3.85449 57.8252 3.54834 58.1582 3.34424C58.4948 3.14014 58.8457 3.03809 59.2109 3.03809C59.637 3.03809 59.9754 3.14014 60.2261 3.34424C60.4767 3.54834 60.6379 3.85449 60.7095 4.2627C61.0496 3.85449 61.3934 3.54834 61.7407 3.34424C62.0881 3.14014 62.4372 3.03809 62.7881 3.03809C63.8337 3.03809 64.3564 3.611 64.3564 4.75684V7.60889C64.3564 8.09587 64.394 8.3859 64.4692 8.479C64.548 8.56852 64.8076 8.62939 65.248 8.66162L65.3501 8.66699V9H62.2993V8.66699L62.4014 8.66162C62.8418 8.62939 63.0996 8.56852 63.1748 8.479C63.2536 8.3859 63.293 8.09587 63.293 7.60889V4.9502C63.293 4.48828 63.2321 4.1696 63.1104 3.99414C62.9922 3.8151 62.7791 3.72559 62.4712 3.72559C62.2134 3.72559 61.943 3.80078 61.6602 3.95117C61.3809 4.10156 61.0872 4.32715 60.7793 4.62793V7.60889C60.7793 8.09229 60.8187 8.38232 60.8975 8.479C60.9762 8.5721 61.234 8.63298 61.6709 8.66162L61.7729 8.66699V9H58.7222V8.66699L58.8242 8.66162C59.2646 8.63298 59.5225 8.5721 59.5977 8.479C59.6764 8.3859 59.7158 8.09587 59.7158 7.60889V4.9502C59.7158 4.49544 59.6567 4.17855 59.5386 3.99951C59.4204 3.81689 59.2127 3.72559 58.9155 3.72559C58.6362 3.72559 58.3534 3.80078 58.0669 3.95117C57.7804 4.10156 57.4904 4.32715 57.1968 4.62793V7.60889C57.1968 8.09587 57.2362 8.3859 57.3149 8.479C57.3937 8.5721 57.6533 8.63298 58.0938 8.66162L58.1958 8.66699V9H55.145V8.66699L55.2471 8.66162C55.6803 8.63298 55.9364 8.5721 56.0151 8.479C56.0975 8.38232 56.1387 8.09229 56.1387 7.60889V4.55811C56.1387 4.07471 56.0975 3.78646 56.0151 3.69336C55.9364 3.60026 55.6803 3.5376 55.2471 3.50537L55.145 3.5V3.16699H57.1968V4.2627ZM70.9575 8.33936V9.73047C70.9575 10.2174 70.9969 10.5057 71.0757 10.5952C71.1545 10.6883 71.4141 10.751 71.8545 10.7832L71.9565 10.7886V11.1216H68.9058V10.7886L69.0078 10.7832C69.4411 10.751 69.6971 10.6883 69.7759 10.5952C69.8582 10.5021 69.8994 10.2139 69.8994 9.73047V4.55811C69.8994 4.07471 69.8582 3.78646 69.7759 3.69336C69.6971 3.60026 69.4411 3.5376 69.0078 3.50537L68.9058 3.5V3.16699H70.9575V4.2627C71.2225 3.85449 71.5251 3.54834 71.8652 3.34424C72.209 3.14014 72.5903 3.03809 73.0093 3.03809C73.6681 3.03809 74.1927 3.29769 74.583 3.81689C74.9733 4.3361 75.1685 5.03434 75.1685 5.91162C75.1685 6.88558 74.9447 7.66618 74.4971 8.25342C74.0495 8.84066 73.4551 9.13428 72.7139 9.13428C72.3737 9.13428 72.0568 9.06803 71.7632 8.93555C71.4696 8.80306 71.201 8.60433 70.9575 8.33936ZM70.9575 7.92041C71.2404 8.12809 71.5161 8.28385 71.7847 8.3877C72.0532 8.49154 72.3164 8.54346 72.5742 8.54346C73.0648 8.54346 73.4318 8.34831 73.6753 7.95801C73.9188 7.56771 74.0405 6.98226 74.0405 6.20166C74.0405 5.37451 73.9224 4.75505 73.686 4.34326C73.4497 3.9279 73.0934 3.72021 72.6172 3.72021C72.2985 3.72021 72.0013 3.7972 71.7256 3.95117C71.4499 4.10156 71.1938 4.32894 70.9575 4.6333V7.92041ZM78.0151 4.2627C78.2837 3.85449 78.5934 3.54834 78.9443 3.34424C79.2952 3.14014 79.6873 3.03809 80.1206 3.03809C80.6219 3.03809 81.0158 3.2028 81.3022 3.53223C81.5851 3.86165 81.7266 4.31462 81.7266 4.89111V7.60889C81.7516 8.14242 81.7928 8.4432 81.8501 8.51123C81.9074 8.57926 82.1652 8.62939 82.6235 8.66162L82.7202 8.66699V9H79.6748V8.66699L79.7715 8.66162C80.2298 8.62939 80.4876 8.57926 80.5449 8.51123C80.6022 8.4432 80.6434 8.14242 80.6685 7.60889V5.05762C80.6685 4.55632 80.6022 4.20898 80.4697 4.01562C80.3408 3.81868 80.1081 3.72021 79.7715 3.72021C79.5352 3.72021 79.2702 3.79541 78.9766 3.9458C78.6829 4.09261 78.3625 4.31641 78.0151 4.61719V7.60889C78.0151 8.09587 78.0545 8.3859 78.1333 8.479C78.2121 8.5721 78.4717 8.63298 78.9121 8.66162L79.0142 8.66699V9H75.9634V8.66699L76.0654 8.66162C76.4987 8.63298 76.7547 8.5721 76.8335 8.479C76.9159 8.38232 76.957 8.09229 76.957 7.60889V1.91016C76.957 1.42676 76.9159 1.13851 76.8335 1.04541C76.7547 0.94873 76.4987 0.886068 76.0654 0.857422L75.9634 0.852051V0.519043H78.0151V4.2627ZM86.0396 9.13428C85.1802 9.13428 84.5016 8.86214 84.0039 8.31787C83.5062 7.77002 83.2573 7.02523 83.2573 6.0835C83.2573 5.14176 83.5062 4.39876 84.0039 3.85449C84.5016 3.31022 85.1802 3.03809 86.0396 3.03809C86.9025 3.03809 87.5811 3.31022 88.0752 3.85449C88.5729 4.39876 88.8218 5.14176 88.8218 6.0835C88.8218 7.02523 88.5729 7.77002 88.0752 8.31787C87.5775 8.86214 86.8989 9.13428 86.0396 9.13428ZM86.0396 8.80127C86.5158 8.80127 86.9115 8.54525 87.2266 8.0332C87.5417 7.51758 87.6992 6.86768 87.6992 6.0835C87.6992 5.30648 87.5417 4.66016 87.2266 4.14453C86.9115 3.62533 86.5158 3.36572 86.0396 3.36572C85.5669 3.36572 85.173 3.62533 84.8579 4.14453C84.5428 4.66016 84.3853 5.30648 84.3853 6.0835C84.3853 6.86768 84.541 7.51758 84.8525 8.0332C85.1676 8.54525 85.5633 8.80127 86.0396 8.80127ZM93.2261 8.96777C92.9575 9.07878 92.7015 9.13428 92.458 9.13428C91.8385 9.13428 91.3856 8.97852 91.0991 8.66699C90.8162 8.35547 90.6748 7.85954 90.6748 7.1792V3.60205H89.8154V3.16699H90.6748V2.10889L91.7383 1.8457V3.16699H93.3604V3.60205H91.7383V7.31885C91.7383 7.82015 91.8045 8.17643 91.937 8.3877C92.0695 8.59896 92.2951 8.70459 92.6138 8.70459C92.7821 8.70459 92.9862 8.64909 93.2261 8.53809V8.96777ZM96.9751 9.13428C96.1157 9.13428 95.4372 8.86214 94.9395 8.31787C94.4417 7.77002 94.1929 7.02523 94.1929 6.0835C94.1929 5.14176 94.4417 4.39876 94.9395 3.85449C95.4372 3.31022 96.1157 3.03809 96.9751 3.03809C97.8381 3.03809 98.5166 3.31022 99.0107 3.85449C99.5085 4.39876 99.7573 5.14176 99.7573 6.0835C99.7573 7.02523 99.5085 7.77002 99.0107 8.31787C98.513 8.86214 97.8345 9.13428 96.9751 9.13428ZM96.9751 8.80127C97.4513 8.80127 97.847 8.54525 98.1621 8.0332C98.4772 7.51758 98.6348 6.86768 98.6348 6.0835C98.6348 5.30648 98.4772 4.66016 98.1621 4.14453C97.847 3.62533 97.4513 3.36572 96.9751 3.36572C96.5024 3.36572 96.1086 3.62533 95.7935 4.14453C95.4784 4.66016 95.3208 5.30648 95.3208 6.0835C95.3208 6.86768 95.4766 7.51758 95.7881 8.0332C96.1032 8.54525 96.4989 8.80127 96.9751 8.80127Z" fill="black"/>
</svg>
